<svg width="138" height="135" viewBox="0 0 138 135" fill="none" xmlns="http://www.w3.org/2000/svg">
<path opacity="0.4" d="M128.07 7.63703C128.266 8.12659 128.167 8.67083 127.819 9.05614L126.498 10.5085L125.37 11.7353L123.04 14.2991C122.79 14.5761 122.479 14.7819 122.125 14.9096C121.772 15.0372 121.395 15.0797 121.014 15.0304L113.771 14.1266C113.24 14.0586 112.785 13.7145 112.588 13.2249C112.392 12.7353 112.491 12.1911 112.84 11.8057L114.337 10.1652L115.528 8.85311L117.618 6.56281C118.118 6.00878 118.883 5.73284 119.644 5.83156L126.888 6.73526C127.418 6.80324 127.874 7.14747 128.07 7.63703Z" fill="#2C7CC8"/>
<path opacity="0.4" d="M120.449 16.4589L113.793 15.8204C113.28 15.7671 112.794 15.9737 112.477 16.3577C112.161 16.7418 112.089 17.2451 112.271 17.6984L114.282 22.7118C114.631 23.5821 115.45 24.179 116.428 24.2722L123.081 24.9017C123.308 24.9233 123.536 24.8927 123.747 24.8168C123.995 24.7272 124.218 24.574 124.383 24.3587C124.7 23.9747 124.771 23.4714 124.59 23.0181L122.579 18.0047C122.247 17.149 121.428 16.5521 120.449 16.4589Z" fill="#2C7CC8"/>
<path opacity="0.4" d="M131.445 10.7881L133.456 15.8016C133.801 16.6629 133.607 17.6253 132.942 18.3118L128.417 22.986C128.262 23.1456 128.07 23.2669 127.86 23.3427C127.611 23.4324 127.337 23.4587 127.053 23.4055C126.557 23.3146 126.142 22.9872 125.96 22.5339L123.953 17.5295C123.604 16.6592 123.798 15.6967 124.463 15.0102L126.129 13.2985L127.289 12.1012L128.992 10.3451C129.338 9.98139 129.843 9.82016 130.352 9.91662C130.848 10.0075 131.263 10.3348 131.445 10.7881Z" fill="#2C7CC8"/>
<path opacity="0.4" d="M13.5247 104.491C13.2572 105.158 13.3921 105.899 13.867 106.424L15.6663 108.402L17.2014 110.073L20.3754 113.565C20.7157 113.943 21.1397 114.223 21.6213 114.397C22.1029 114.571 22.6161 114.629 23.1348 114.561L33.0007 113.33C33.7233 113.238 34.3434 112.769 34.6108 112.102C34.8782 111.435 34.7434 110.694 34.2685 110.169L32.2292 107.935L30.6066 106.148L27.7601 103.028C27.0793 102.274 26.038 101.898 25.0007 102.032L15.1348 103.263C14.4122 103.356 13.7921 103.825 13.5247 104.491Z" fill="#2C7CC8"/>
<path opacity="0.4" d="M23.9041 116.507L32.9695 115.637C33.6691 115.565 34.3311 115.846 34.762 116.369C35.193 116.892 35.2906 117.578 35.0429 118.195L32.3044 125.024C31.829 126.209 30.7133 127.022 29.3809 127.149L20.3204 128.006C20.0106 128.036 19.6995 127.994 19.4131 127.891C19.0747 127.768 18.7709 127.56 18.5458 127.267C18.1149 126.744 18.0173 126.058 18.2649 125.441L21.0035 118.612C21.456 117.447 22.5717 116.634 23.9041 116.507Z" fill="#2C7CC8"/>
<path opacity="0.4" d="M8.92765 108.783L6.18909 115.612C5.71863 116.785 5.98258 118.096 6.88902 119.031L13.0525 125.397C13.2633 125.614 13.5249 125.779 13.8112 125.883C14.1496 126.005 14.5227 126.041 14.9094 125.968C15.5848 125.845 16.1511 125.399 16.3987 124.781L19.1323 117.965C19.6077 116.78 19.3437 115.469 18.4373 114.534L16.1687 112.202L14.5877 110.572L12.2689 108.18C11.7971 107.684 11.1103 107.465 10.4169 107.596C9.74149 107.72 9.17526 108.166 8.92765 108.783Z" fill="#2C7CC8"/>
<g filter="url(#filter0_b_0_3172)">
<path opacity="0.4" d="M107.82 34.1524L64.5029 58.9949L21.1862 34.1524C23.1029 30.6374 25.8821 27.5499 28.9967 25.8399L54.5842 11.7799C60.0467 8.73994 68.9592 8.73994 74.4217 11.7799L100.009 25.8399C103.124 27.5499 105.903 30.6374 107.82 34.1524Z" fill="#2C7CC8"/>
<path opacity="0.6" d="M64.5029 58.995V104.5C60.9091 104.5 57.3154 103.74 54.5842 102.22L28.9967 88.16C23.1987 84.9775 18.455 76.9975 18.455 70.4425V43.5575C18.455 40.5175 19.5092 37.1925 21.1862 34.1525L64.5029 58.995Z" fill="#2C7CC8"/>
<path d="M110.551 43.5575V70.4425C110.551 76.9975 105.807 84.9775 100.009 88.16L74.4216 102.22C71.6904 103.74 68.0966 104.5 64.5029 104.5V58.995L107.82 34.1525C109.497 37.1925 110.551 40.5175 110.551 43.5575Z" fill="#2C7CC8"/>
</g>
<defs>
<filter id="filter0_b_0_3172" x="-5.00009" y="-12.0001" width="139" height="138" filterUnits="userSpaceOnUse" color-interpolation-filters="sRGB">
<feFlood flood-opacity="0" result="BackgroundImageFix"/>
<feGaussianBlur in="BackgroundImageFix" stdDeviation="6"/>
<feComposite in2="SourceAlpha" operator="in" result="effect1_backgroundBlur_0_3172"/>
<feBlend mode="normal" in="SourceGraphic" in2="effect1_backgroundBlur_0_3172" result="shape"/>
</filter>
</defs>
</svg>
