<svg width="150" height="135" viewBox="0 0 150 135" fill="none" xmlns="http://www.w3.org/2000/svg">
<path d="M52.1503 95.9137C76.1518 95.9137 95.6089 76.3946 95.6089 52.3166C95.6089 28.2386 76.1518 8.71948 52.1503 8.71948C28.1488 8.71948 8.69171 28.2386 8.69171 52.3166C8.69171 76.3946 28.1488 95.9137 52.1503 95.9137Z" fill="#659FD6"/>
<path d="M51.5 127C56.7927 127 61.0834 122.523 61.0834 117C61.0834 111.477 56.7927 107 51.5 107C46.2073 107 41.9167 111.477 41.9167 117C41.9167 122.523 46.2073 127 51.5 127Z" fill="#2C7CC8"/>
<path d="M120.5 20.6667C123.952 20.6667 126.75 17.6819 126.75 14C126.75 10.3181 123.952 7.33337 120.5 7.33337C117.048 7.33337 114.25 10.3181 114.25 14C114.25 17.6819 117.048 20.6667 120.5 20.6667Z" fill="#2C7CC8"/>
<g filter="url(#filter0_b_0_3138)">
<path d="M87.0065 124.468C115.998 124.468 139.501 100.89 139.501 71.8057C139.501 42.7213 115.998 19.1438 87.0065 19.1438C58.0146 19.1438 34.512 42.7213 34.512 71.8057C34.512 100.89 58.0146 124.468 87.0065 124.468Z" fill="#A9CFFF" fill-opacity="0.6"/>
</g>
<path d="M106.482 92.5018C105.8 92.5018 105.117 92.3438 104.487 91.9225L88.2139 82.18C84.1718 79.7576 81.1796 74.4387 81.1796 69.7518V48.1605C81.1796 46.0013 82.9644 44.2108 85.1167 44.2108C87.269 44.2108 89.0538 46.0013 89.0538 48.1605V69.7518C89.0538 71.6476 90.6286 74.4387 92.256 75.3866L108.529 85.1291C110.419 86.235 110.997 88.6574 109.894 90.5533C109.107 91.8172 107.794 92.5018 106.482 92.5018Z" fill="#2C7CC8"/>
<defs>
<filter id="filter0_b_0_3138" x="24.512" y="9.1438" width="124.989" height="125.324" filterUnits="userSpaceOnUse" color-interpolation-filters="sRGB">
<feFlood flood-opacity="0" result="BackgroundImageFix"/>
<feGaussianBlur in="BackgroundImageFix" stdDeviation="5"/>
<feComposite in2="SourceAlpha" operator="in" result="effect1_backgroundBlur_0_3138"/>
<feBlend mode="normal" in="SourceGraphic" in2="effect1_backgroundBlur_0_3138" result="shape"/>
</filter>
</defs>
</svg>
