<svg width="150" height="131" viewBox="0 0 150 131" fill="none" xmlns="http://www.w3.org/2000/svg">
<path d="M71.4474 20.8214L78.5526 111.11L74.2819 116.042C68.3551 122.871 62.9107 121.028 62.1942 111.923L59.1236 72.9028H41.1289C32.976 72.9028 30.338 68.2421 35.3061 62.5516L71.4474 20.8214Z" fill="#2C7CC8"/>
<g opacity="0.4" filter="url(#filter0_b_0_3146)">
<path d="M114.694 69.3802L78.5526 111.11L71.4474 20.8214L75.7181 15.8897C81.6449 9.0611 87.0893 10.9037 87.8058 20.0085L90.8764 59.0289H108.871C117.024 59.0289 119.662 63.6897 114.694 69.3802Z" fill="#2C7CC8"/>
</g>
<path d="M35.4367 5.90935C36.0908 4.19151 38.5209 4.19151 39.175 5.90935L41.6089 12.3022C41.806 12.8199 42.2089 13.2326 42.7216 13.4421L49.08 16.0398C50.7381 16.7172 50.7381 19.0653 49.08 19.7427L42.7216 22.3404C42.2089 22.5499 41.806 22.9626 41.6089 23.4803L39.175 29.8732C38.5209 31.591 36.0908 31.591 35.4367 29.8732L33.0028 23.4803C32.8057 22.9626 32.4028 22.5499 31.8901 22.3404L25.5317 19.7427C23.8736 19.0653 23.8736 16.7172 25.5317 16.0398L31.8901 13.4421C32.4028 13.2326 32.8057 12.8199 33.0028 12.3022L35.4367 5.90935Z" fill="#5294D1"/>
<path d="M105.517 113.587C105.782 112.6 107.182 112.6 107.448 113.587L108.556 117.704C108.649 118.048 108.918 118.317 109.262 118.41L113.379 119.519C114.366 119.784 114.366 121.184 113.379 121.45L109.262 122.559C108.918 122.651 108.649 122.92 108.556 123.264L107.448 127.381C107.182 128.368 105.782 128.368 105.517 127.381L104.408 123.264C104.316 122.92 104.047 122.651 103.703 122.559L99.5856 121.45C98.599 121.184 98.599 119.784 99.5856 119.519L103.703 118.41C104.047 118.317 104.316 118.048 104.408 117.704L105.517 113.587Z" fill="#2C7CC8"/>
<defs>
<filter id="filter0_b_0_3146" x="59.4474" y="-0.233887" width="69.7585" height="123.344" filterUnits="userSpaceOnUse" color-interpolation-filters="sRGB">
<feFlood flood-opacity="0" result="BackgroundImageFix"/>
<feGaussianBlur in="BackgroundImageFix" stdDeviation="6"/>
<feComposite in2="SourceAlpha" operator="in" result="effect1_backgroundBlur_0_3146"/>
<feBlend mode="normal" in="SourceGraphic" in2="effect1_backgroundBlur_0_3146" result="shape"/>
</filter>
</defs>
</svg>
