<svg width="36" height="36" viewBox="0 0 36 36" fill="none" xmlns="http://www.w3.org/2000/svg">
<path fill-rule="evenodd" clip-rule="evenodd" d="M11.5051 2.99985H24.5101C29.5951 2.99985 33.0001 6.56985 33.0001 11.8798V24.1363C33.0001 29.4298 29.5951 32.9998 24.5101 32.9998H11.5051C6.42012 32.9998 3.00012 29.4298 3.00012 24.1363V11.8798C3.00012 6.56985 6.42012 2.99985 11.5051 2.99985ZM17.1451 22.4848L24.2701 15.3598C24.7801 14.8498 24.7801 14.0248 24.2701 13.4998C23.7601 12.9898 22.9201 12.9898 22.4101 13.4998L16.2151 19.6948L13.5901 17.0698C13.0801 16.5598 12.2401 16.5598 11.7301 17.0698C11.2201 17.5798 11.2201 18.4048 11.7301 18.9298L15.3001 22.4848C15.5551 22.7398 15.8851 22.8598 16.2151 22.8598C16.5601 22.8598 16.8901 22.7398 17.1451 22.4848Z" fill="#2C7CC8"/>
</svg>
