<svg width="162" height="159" viewBox="0 0 162 159" fill="none" xmlns="http://www.w3.org/2000/svg">
<path d="M112.427 82.2534L79.36 22.7334C74.9167 14.725 68.7683 10.3334 62 10.3334C55.2317 10.3334 49.0833 14.725 44.64 22.7334L11.5733 82.2534C7.38834 89.8484 6.92334 97.1334 10.2817 102.868C13.64 108.603 20.2533 111.755 28.9333 111.755H95.0667C103.747 111.755 110.36 108.603 113.718 102.868C117.077 97.1334 116.612 89.7967 112.427 82.2534Z" fill="#0055A5"/>
<g filter="url(#filter0_b_0_3153)">
<path opacity="0.4" d="M148.933 111.867L111.6 44.6666C106.583 35.625 99.6417 30.6666 92 30.6666C84.3583 30.6666 77.4167 35.625 72.4 44.6666L35.0667 111.867C30.3417 120.442 29.8167 128.667 33.6083 135.142C37.4 141.617 44.8667 145.175 54.6667 145.175H129.333C139.133 145.175 146.6 141.617 150.392 135.142C154.183 128.667 153.658 120.383 148.933 111.867Z" fill="#D4E7FF"/>
<path d="M92 105.042C89.6083 105.042 87.625 103.058 87.625 100.667V71.5C87.625 69.1083 89.6083 67.125 92 67.125C94.3917 67.125 96.375 69.1083 96.375 71.5V100.667C96.375 103.058 94.3917 105.042 92 105.042Z" fill="#D4E7FF"/>
<path d="M92 124C91.65 124 91.2417 123.942 90.8333 123.883C90.4833 123.825 90.1333 123.708 89.7833 123.533C89.4333 123.417 89.0833 123.242 88.7333 123.008C88.4417 122.775 88.15 122.542 87.8583 122.308C86.8083 121.2 86.1667 119.683 86.1667 118.167C86.1667 116.65 86.8083 115.133 87.8583 114.025C88.15 113.792 88.4417 113.558 88.7333 113.325C89.0833 113.092 89.4333 112.917 89.7833 112.8C90.1333 112.625 90.4833 112.508 90.8333 112.45C91.5917 112.275 92.4083 112.275 93.1083 112.45C93.5167 112.508 93.8667 112.625 94.2167 112.8C94.5667 112.917 94.9167 113.092 95.2667 113.325C95.5583 113.558 95.85 113.792 96.1417 114.025C97.1917 115.133 97.8333 116.65 97.8333 118.167C97.8333 119.683 97.1917 121.2 96.1417 122.308C95.85 122.542 95.5583 122.775 95.2667 123.008C94.9167 123.242 94.5667 123.417 94.2167 123.533C93.8667 123.708 93.5167 123.825 93.1083 123.883C92.7583 123.942 92.35 124 92 124Z" fill="#D4E7FF"/>
</g>
<defs>
<filter id="filter0_b_0_3153" x="12" y="9" width="160" height="160" filterUnits="userSpaceOnUse" color-interpolation-filters="sRGB">
<feFlood flood-opacity="0" result="BackgroundImageFix"/>
<feGaussianBlur in="BackgroundImageFix" stdDeviation="5"/>
<feComposite in2="SourceAlpha" operator="in" result="effect1_backgroundBlur_0_3153"/>
<feBlend mode="normal" in="SourceGraphic" in2="effect1_backgroundBlur_0_3153" result="shape"/>
</filter>
</defs>
</svg>
