<svg width="543" height="379" viewBox="0 0 543 379" fill="none" xmlns="http://www.w3.org/2000/svg">
<path d="M246.91 348.006C246.795 348.021 246.675 348.012 246.558 347.973C246.144 347.835 245.92 347.389 246.057 346.975C264.584 291.12 263.998 229.245 263.99 228.627C263.984 228.191 264.334 227.832 264.769 227.827C265.205 227.821 265.563 228.17 265.568 228.606C265.576 229.227 266.165 291.368 247.556 347.472C247.457 347.768 247.2 347.968 246.91 348.006Z" fill="#2C7CC8"/>
<path d="M285.975 241.645C285.929 241.645 285.883 241.633 285.841 241.609C285.716 241.535 285.674 241.374 285.747 241.248C291.096 232.126 294.374 223.506 295.491 215.627C296.383 209.337 295.907 203.502 294.075 198.286C290.957 189.405 284.903 185.336 284.843 185.296C284.721 185.215 284.687 185.052 284.768 184.93C284.847 184.808 285.012 184.775 285.133 184.855C285.195 184.896 291.378 189.043 294.562 198.078C296.428 203.376 296.918 209.297 296.017 215.675C294.894 223.63 291.592 232.323 286.202 241.515C286.153 241.598 286.065 241.645 285.975 241.645Z" fill="#DAE3FE"/>
<path d="M232.989 336.11C232.917 336.11 232.845 336.081 232.793 336.023C224.774 327.102 219.274 318.969 216.445 311.848C214.124 306.007 213.576 300.8 214.817 296.374C217.286 287.559 226.103 284.812 226.191 284.785C226.331 284.744 226.478 284.822 226.52 284.962C226.562 285.101 226.483 285.248 226.344 285.291C226.258 285.317 217.71 287.987 215.323 296.523C214.117 300.836 214.66 305.928 216.938 311.659C219.744 318.72 225.21 326.798 233.186 335.67C233.283 335.778 233.274 335.945 233.166 336.042C233.115 336.088 233.052 336.11 232.989 336.11Z" fill="#F0F0F0"/>
<path d="M351.109 26.2953H344.325C343.238 26.2953 342.384 25.3893 342.482 24.3379L343.384 14.6021C343.47 13.676 344.27 12.9663 345.228 12.9663H350.285C351.248 12.9663 352.051 13.6837 352.13 14.6158L352.954 24.3516C353.043 25.3985 352.191 26.2953 351.109 26.2953Z" fill="#96CAFF"/>
<path d="M373.058 26.2953H366.274C365.186 26.2953 364.333 25.3893 364.43 24.3379L365.332 14.6021C365.418 13.676 366.218 12.9663 367.176 12.9663H372.233C373.197 12.9663 374 13.6837 374.078 14.6158L374.903 24.3516C374.991 25.3985 374.14 26.2953 373.058 26.2953Z" fill="#96CAFF"/>
<path d="M471.262 26.2953H464.478C463.39 26.2953 462.537 25.3893 462.635 24.3379L463.537 14.6021C463.622 13.676 464.422 12.9663 465.38 12.9663H470.438C471.401 12.9663 472.204 13.6837 472.283 14.6158L473.107 24.3516C473.196 25.3985 472.344 26.2953 471.262 26.2953Z" fill="#96CAFF"/>
<path d="M493.211 26.2953H486.427C485.34 26.2953 484.486 25.3893 484.584 24.3379L485.486 14.6021C485.572 13.676 486.372 12.9663 487.33 12.9663H492.387C493.35 12.9663 494.153 13.6837 494.232 14.6158L495.056 24.3516C495.145 25.3985 494.293 26.2953 493.211 26.2953Z" fill="#96CAFF"/>
<path d="M362.225 26.3159L415.221 68.151V62.8741L366.928 24.5336L362.225 26.3159Z" fill="#96CAFF"/>
<path d="M474.446 27.2093L421.45 69.0446V63.7677L469.743 25.427L474.446 27.2093Z" fill="#96CAFF"/>
<path d="M494.746 27.8868H342.164C340.693 27.8868 339.5 26.6942 339.5 25.2233C339.5 23.7524 340.693 22.5598 342.164 22.5598H494.746C496.217 22.5598 497.409 23.7524 497.409 25.2233C497.409 26.6942 496.217 27.8868 494.746 27.8868Z" fill="#96CAFF"/>
<path d="M420.238 278.684H415.525C414.133 278.684 413.005 277.555 413.005 276.164V2.51996C413.005 1.12819 414.133 0 415.525 0H420.238C421.63 0 422.758 1.12819 422.758 2.51996V276.164C422.758 277.555 421.63 278.684 420.238 278.684Z" fill="#96CAFF"/>
<path d="M423.559 120.797H412.223C410.173 120.797 408.511 119.135 408.511 117.085V91.8295C408.511 89.7792 410.173 88.1172 412.223 88.1172H423.559C425.609 88.1172 427.271 89.7794 427.271 91.8295V117.085C427.271 119.135 425.609 120.797 423.559 120.797Z" fill="#96CAFF"/>
<path d="M461.454 174.324C461.436 173.738 461.094 173.184 460.509 172.792C459.924 172.401 459.148 172.208 458.365 172.259L379.315 177.367C377.845 177.462 376.671 178.38 376.671 179.48V298.026C376.671 299.198 378.036 300.059 379.606 300.059H462.385C463.15 300.059 463.883 299.873 464.418 299.465C464.953 299.057 465.245 298.527 465.228 297.956L461.454 174.324Z" fill="#2C7CC8"/>
<path d="M392.333 183.214L386.138 183.519C385.477 183.551 384.977 184.006 384.977 184.536V292.67C384.977 293.211 385.447 293.745 386.115 293.745H392.412C393.084 293.745 393.636 293.257 393.636 292.714L393.546 184.141C393.546 183.609 392.999 183.181 392.333 183.214Z" fill="#50AAFF"/>
<path d="M406.97 182.498L400.659 182.806C399.989 182.839 399.343 183.303 399.344 183.836L399.495 292.712C399.496 293.256 400.15 293.745 400.827 293.745H407.207C407.888 293.745 408.341 293.254 408.34 292.708L408.096 183.435C408.095 182.9 407.644 182.465 406.97 182.498Z" fill="#50AAFF"/>
<path d="M421.799 181.772L415.405 182.085C414.726 182.119 414.335 182.573 414.336 183.109L414.647 292.705C414.648 293.253 415.046 293.745 415.732 293.745H422.196C422.886 293.745 423.613 293.252 423.611 292.701L423.205 182.703C423.203 182.164 422.481 181.739 421.799 181.772Z" fill="#50AAFF"/>
<path d="M436.821 181.038L430.343 181.355C429.655 181.388 429.153 181.851 429.155 182.391L429.625 292.699C429.628 293.251 430.139 293.745 430.835 293.745H437.384C438.084 293.745 438.71 293.249 438.708 292.695L438.14 181.979C438.137 181.437 437.513 181.004 436.821 181.038Z" fill="#50AAFF"/>
<path d="M452.043 180.293L445.479 180.614C444.782 180.648 444.166 181.119 444.169 181.662L444.803 292.692C444.806 293.247 445.434 293.745 446.139 293.745H452.776C453.485 293.745 454.009 293.246 454.006 292.688L453.272 181.245C453.268 180.699 452.744 180.259 452.043 180.293Z" fill="#50AAFF"/>
<path d="M539.325 155.879C539.288 153.828 537.708 152.102 535.77 152.102H462.533C460.569 152.102 458.863 153.954 458.863 156.034V341.891C458.863 342.891 459.296 343.85 459.965 344.557C460.634 345.263 461.569 345.659 462.514 345.656L539.06 345.435C540.012 345.432 540.931 345.024 541.598 344.303C542.265 343.582 542.633 342.566 542.615 341.557L539.325 155.879Z" fill="#96CAFF"/>
<path d="M483.496 159.713H464.573C464.01 159.713 463.602 160.532 463.602 161.17V164.797C463.602 165.435 464.01 166.046 464.573 166.046H483.496C484.059 166.046 484.709 165.435 484.709 164.797V161.17C484.709 160.532 484.059 159.713 483.496 159.713Z" fill="#2C7CC8"/>
<path d="M508.824 159.713H489.901C489.338 159.713 489.195 160.532 489.195 161.17V164.797C489.195 165.435 489.338 166.046 489.901 166.046H508.824C509.387 166.046 509.51 165.435 509.51 164.797V161.17C509.51 160.532 509.387 159.713 508.824 159.713Z" fill="#2C7CC8"/>
<path d="M534.152 159.713H515.229C514.666 159.713 514.523 160.532 514.523 161.17V164.797C514.523 165.435 514.666 166.046 515.229 166.046H534.152C534.715 166.046 535.103 165.435 535.103 164.797V161.17C535.103 160.532 534.715 159.713 534.152 159.713Z" fill="#2C7CC8"/>
<path d="M483.496 174.753H464.573C464.01 174.753 463.602 174.877 463.602 175.514V179.141C463.602 179.779 464.01 180.029 464.573 180.029H483.496C484.059 180.029 484.709 179.779 484.709 179.141V175.514C484.709 174.877 484.059 174.753 483.496 174.753Z" fill="#2C7CC8"/>
<path d="M508.824 174.752H489.901C489.338 174.752 489.195 174.876 489.195 175.514V179.141C489.195 179.779 489.338 180.029 489.901 180.029H508.824C509.387 180.029 509.511 179.779 509.511 179.141V175.514C509.511 174.876 509.387 174.752 508.824 174.752Z" fill="#2C7CC8"/>
<path d="M534.152 174.752H515.229C514.667 174.752 514.523 174.876 514.523 175.514V179.141C514.523 179.779 514.667 180.029 515.229 180.029H534.152C534.715 180.029 535.103 179.779 535.103 179.141V175.514C535.103 174.876 534.715 174.752 534.152 174.752Z" fill="#2C7CC8"/>
<path d="M483.496 188.472H464.573C464.01 188.472 463.602 189.221 463.602 189.858V193.485C463.602 194.123 464.01 195.332 464.573 195.332H483.496C484.059 195.332 484.709 194.123 484.709 193.485V189.858C484.709 189.221 484.059 188.472 483.496 188.472Z" fill="#2C7CC8"/>
<path d="M508.824 188.472H489.901C489.338 188.472 489.195 189.221 489.195 189.858V193.485C489.195 194.123 489.338 195.332 489.901 195.332H508.824C509.387 195.332 509.511 194.123 509.511 193.485V189.858C509.511 189.221 509.387 188.472 508.824 188.472Z" fill="#2C7CC8"/>
<path d="M534.152 188.472H515.229C514.667 188.472 514.523 189.221 514.523 189.858V193.485C514.523 194.123 514.667 195.332 515.229 195.332H534.152C534.715 195.332 535.103 194.123 535.103 193.485V189.858C535.103 189.221 534.715 188.472 534.152 188.472Z" fill="#2C7CC8"/>
<path d="M483.496 202.984H464.573C464.01 202.984 463.602 203.565 463.602 204.202V207.829C463.602 208.467 464.01 209.316 464.573 209.316H483.496C484.059 209.316 484.709 208.467 484.709 207.829V204.202C484.709 203.565 484.059 202.984 483.496 202.984Z" fill="#2C7CC8"/>
<path d="M508.824 202.984H489.901C489.338 202.984 489.195 203.565 489.195 204.202V207.829C489.195 208.467 489.338 209.316 489.901 209.316H508.824C509.387 209.316 509.511 208.467 509.511 207.829V204.202C509.511 203.565 509.387 202.984 508.824 202.984Z" fill="#2C7CC8"/>
<path d="M534.152 202.984H515.229C514.667 202.984 514.523 203.565 514.523 204.202V207.829C514.523 208.467 514.667 209.316 515.229 209.316H534.152C534.715 209.316 535.103 208.467 535.103 207.829V204.202C535.103 203.565 534.715 202.984 534.152 202.984Z" fill="#2C7CC8"/>
<path d="M483.496 216.967H464.573C464.01 216.967 463.602 217.909 463.602 218.546V222.173C463.602 222.811 464.01 223.563 464.573 223.563H483.496C484.059 223.563 484.709 222.811 484.709 222.173V218.546C484.709 217.909 484.059 216.967 483.496 216.967Z" fill="#2C7CC8"/>
<path d="M508.824 216.967H489.901C489.338 216.967 489.195 217.909 489.195 218.546V222.173C489.195 222.811 489.338 223.563 489.901 223.563H508.824C509.387 223.563 509.511 222.811 509.511 222.173V218.546C509.511 217.909 509.387 216.967 508.824 216.967Z" fill="#2C7CC8"/>
<path d="M534.152 216.967H515.229C514.667 216.967 514.523 217.909 514.523 218.546V222.173C514.523 222.811 514.667 223.563 515.229 223.563H534.152C534.715 223.563 535.103 222.811 535.103 222.173V218.546C535.103 217.909 534.715 216.967 534.152 216.967Z" fill="#2C7CC8"/>
<path d="M483.496 231.742H464.573C464.01 231.742 463.602 232.253 463.602 232.89V236.517C463.602 237.155 464.01 237.811 464.573 237.811H483.496C484.059 237.811 484.709 237.155 484.709 236.517V232.89C484.709 232.253 484.059 231.742 483.496 231.742Z" fill="#2C7CC8"/>
<path d="M508.824 231.742H489.901C489.338 231.742 489.195 232.253 489.195 232.89V236.517C489.195 237.155 489.338 237.811 489.901 237.811H508.824C509.387 237.811 509.511 237.155 509.511 236.517V232.89C509.511 232.253 509.387 231.742 508.824 231.742Z" fill="#2C7CC8"/>
<path d="M534.152 231.742H515.229C514.667 231.742 514.523 232.253 514.523 232.89V236.517C514.523 237.155 514.667 237.811 515.229 237.811H534.152C534.715 237.811 535.103 237.155 535.103 236.517V232.89C535.103 232.253 534.715 231.742 534.152 231.742Z" fill="#2C7CC8"/>
<path d="M483.496 246.254H464.573C464.01 246.254 463.602 246.597 463.602 247.234V250.862C463.602 251.499 464.01 251.795 464.573 251.795H483.496C484.059 251.795 484.709 251.499 484.709 250.862V247.234C484.709 246.597 484.059 246.254 483.496 246.254Z" fill="#2C7CC8"/>
<path d="M508.824 246.254H489.901C489.338 246.254 489.195 246.597 489.195 247.234V250.862C489.195 251.499 489.338 251.795 489.901 251.795H508.824C509.387 251.795 509.511 251.499 509.511 250.862V247.234C509.511 246.597 509.387 246.254 508.824 246.254Z" fill="#2C7CC8"/>
<path d="M534.152 246.254H515.229C514.667 246.254 514.523 246.597 514.523 247.234V250.862C514.523 251.499 514.667 251.795 515.229 251.795H534.152C534.715 251.795 535.103 251.499 535.103 250.862V247.234C535.103 246.597 534.715 246.254 534.152 246.254Z" fill="#2C7CC8"/>
<path d="M483.496 260.237H464.573C464.01 260.237 463.602 260.941 463.602 261.578V265.206C463.602 265.843 464.01 266.57 464.573 266.57H483.496C484.059 266.57 484.709 265.843 484.709 265.206V261.578C484.709 260.941 484.059 260.237 483.496 260.237Z" fill="#2C7CC8"/>
<path d="M508.824 260.237H489.901C489.338 260.237 489.195 260.941 489.195 261.578V265.206C489.195 265.843 489.338 266.57 489.901 266.57H508.824C509.387 266.57 509.511 265.843 509.511 265.206V261.578C509.511 260.941 509.387 260.237 508.824 260.237Z" fill="#2C7CC8"/>
<path d="M534.152 260.237H515.229C514.667 260.237 514.523 260.941 514.523 261.578V265.206C514.523 265.843 514.667 266.57 515.229 266.57H534.152C534.715 266.57 535.103 265.843 535.103 265.206V261.578C535.103 260.941 534.715 260.237 534.152 260.237Z" fill="#2C7CC8"/>
<path d="M483.496 275.013H464.573C464.01 275.013 463.602 275.285 463.602 275.923V279.55C463.602 280.187 464.01 281.081 464.573 281.081H483.496C484.059 281.081 484.709 280.187 484.709 279.55V275.923C484.709 275.285 484.059 275.013 483.496 275.013Z" fill="#2C7CC8"/>
<path d="M508.824 275.013H489.901C489.338 275.013 489.195 275.285 489.195 275.922V279.55C489.195 280.187 489.338 281.081 489.901 281.081H508.824C509.387 281.081 509.511 280.187 509.511 279.55V275.922C509.511 275.285 509.387 275.013 508.824 275.013Z" fill="#2C7CC8"/>
<path d="M534.152 275.013H515.229C514.667 275.013 514.523 275.285 514.523 275.922V279.55C514.523 280.187 514.667 281.081 515.229 281.081H534.152C534.715 281.081 535.103 280.187 535.103 279.55V275.922C535.103 275.285 534.715 275.013 534.152 275.013Z" fill="#2C7CC8"/>
<path d="M483.496 288.996H464.573C464.01 288.996 463.602 289.629 463.602 290.267V293.894C463.602 294.531 464.01 295.592 464.573 295.592H483.496C484.059 295.592 484.709 294.531 484.709 293.894V290.267C484.709 289.629 484.059 288.996 483.496 288.996Z" fill="#2C7CC8"/>
<path d="M508.824 288.996H489.901C489.338 288.996 489.195 289.629 489.195 290.267V293.894C489.195 294.531 489.338 295.592 489.901 295.592H508.824C509.387 295.592 509.511 294.531 509.511 293.894V290.267C509.511 289.629 509.387 288.996 508.824 288.996Z" fill="#2C7CC8"/>
<path d="M534.152 288.996H515.229C514.667 288.996 514.523 289.629 514.523 290.267V293.894C514.523 294.531 514.667 295.592 515.229 295.592H534.152C534.715 295.592 535.103 294.531 535.103 293.894V290.267C535.103 289.629 534.715 288.996 534.152 288.996Z" fill="#2C7CC8"/>
<path d="M483.496 303.244H464.573C464.01 303.244 463.602 303.973 463.602 304.611V308.238C463.602 308.875 464.01 309.048 464.573 309.048H483.496C484.059 309.048 484.709 308.875 484.709 308.238V304.611C484.709 303.973 484.059 303.244 483.496 303.244Z" fill="#2C7CC8"/>
<path d="M508.824 303.244H489.901C489.338 303.244 489.195 303.973 489.195 304.611V308.238C489.195 308.875 489.338 309.048 489.901 309.048H508.824C509.387 309.048 509.511 308.875 509.511 308.238V304.611C509.511 303.973 509.387 303.244 508.824 303.244Z" fill="#2C7CC8"/>
<path d="M534.152 303.244H515.229C514.667 303.244 514.523 303.973 514.523 304.611V308.238C514.523 308.875 514.667 309.048 515.229 309.048H534.152C534.715 309.048 535.103 308.875 535.103 308.238V304.611C535.103 303.973 534.715 303.244 534.152 303.244Z" fill="#2C7CC8"/>
<path d="M483.496 317.755H464.573C464.01 317.755 463.602 318.317 463.602 318.955V322.582C463.602 323.219 464.01 323.559 464.573 323.559H483.496C484.059 323.559 484.709 323.219 484.709 322.582V318.955C484.709 318.317 484.059 317.755 483.496 317.755Z" fill="#2C7CC8"/>
<path d="M508.824 317.755H489.901C489.338 317.755 489.195 318.317 489.195 318.955V322.582C489.195 323.219 489.338 323.559 489.901 323.559H508.824C509.387 323.559 509.511 323.219 509.511 322.582V318.955C509.511 318.317 509.387 317.755 508.824 317.755Z" fill="#2C7CC8"/>
<path d="M534.152 317.755H515.229C514.667 317.755 514.523 318.317 514.523 318.955V322.582C514.523 323.219 514.667 323.559 515.229 323.559H534.152C534.715 323.559 535.103 323.219 535.103 322.582V318.955C535.103 318.317 534.715 317.755 534.152 317.755Z" fill="#2C7CC8"/>
<path d="M50.425 92.1699C49.8422 92.1699 49.3696 91.6973 49.3696 91.1145V84.2546C49.3696 83.6718 49.8422 83.1992 50.425 83.1992C51.0078 83.1992 51.4804 83.6718 51.4804 84.2546V91.1145C51.4804 91.6973 51.0078 92.1699 50.425 92.1699Z" fill="#062E54"/>
<path d="M53.855 87.1569C53.855 87.594 53.5007 87.9484 53.0635 87.9484H47.7866C47.3495 87.9484 46.9951 87.594 46.9951 87.1569C46.9951 86.7197 47.3495 86.3653 47.7866 86.3653H53.0635C53.5007 86.3653 53.855 86.7197 53.855 87.1569Z" fill="#062E54"/>
<path d="M53.8548 91.1145C53.8548 91.5517 53.5004 91.906 53.0632 91.906H47.7864C47.3492 91.906 46.9949 91.5517 46.9949 91.1145C46.9949 90.6773 47.3492 90.323 47.7864 90.323H53.0632C53.5004 90.323 53.8548 90.6773 53.8548 91.1145Z" fill="#062E54"/>
<path d="M138.285 92.1699C137.702 92.1699 137.229 91.6973 137.229 91.1145V84.2546C137.229 83.6718 137.702 83.1992 138.285 83.1992C138.867 83.1992 139.34 83.6718 139.34 84.2546V91.1145C139.34 91.6973 138.867 92.1699 138.285 92.1699Z" fill="#062E54"/>
<path d="M141.714 87.1569C141.714 87.594 141.36 87.9484 140.923 87.9484H135.646C135.209 87.9484 134.854 87.594 134.854 87.1569C134.854 86.7197 135.209 86.3653 135.646 86.3653H140.923C141.36 86.3653 141.714 86.7197 141.714 87.1569Z" fill="#062E54"/>
<path d="M141.715 91.1145C141.715 91.5517 141.36 91.906 140.923 91.906H135.646C135.209 91.906 134.855 91.5517 134.855 91.1145C134.855 90.6773 135.209 90.323 135.646 90.323H140.923C141.36 90.323 141.715 90.6773 141.715 91.1145Z" fill="#062E54"/>
<path d="M137.229 125.15C136.646 125.15 136.174 124.678 136.174 124.095V117.235C136.174 116.652 136.646 116.179 137.229 116.179C137.812 116.179 138.284 116.652 138.284 117.235V124.095C138.284 124.678 137.812 125.15 137.229 125.15Z" fill="#062E54"/>
<path d="M140.659 120.137C140.659 120.574 140.305 120.929 139.868 120.929H134.591C134.154 120.929 133.799 120.574 133.799 120.137C133.799 119.7 134.154 119.346 134.591 119.346H139.868C140.305 119.346 140.659 119.7 140.659 120.137Z" fill="#062E54"/>
<path d="M140.659 124.359C140.659 124.796 140.305 125.15 139.868 125.15H134.591C134.154 125.15 133.799 124.796 133.799 124.359C133.799 123.921 134.154 123.567 134.591 123.567H139.868C140.305 123.567 140.659 123.921 140.659 124.359Z" fill="#062E54"/>
<path d="M50.425 125.15C49.8422 125.15 49.3696 124.678 49.3696 124.095V117.235C49.3696 116.652 49.8422 116.179 50.425 116.179C51.0078 116.179 51.4804 116.652 51.4804 117.235V124.095C51.4804 124.678 51.0078 125.15 50.425 125.15Z" fill="#062E54"/>
<path d="M53.855 120.137C53.855 120.574 53.5007 120.929 53.0635 120.929H47.7866C47.3495 120.929 46.9951 120.574 46.9951 120.137C46.9951 119.7 47.3495 119.346 47.7866 119.346H53.0635C53.5007 119.346 53.855 119.7 53.855 120.137Z" fill="#062E54"/>
<path d="M53.8548 124.359C53.8548 124.796 53.5004 125.15 53.0632 125.15H47.7864C47.3492 125.15 46.9949 124.796 46.9949 124.359C46.9949 123.921 47.3492 123.567 47.7864 123.567H53.0632C53.5004 123.567 53.8548 123.921 53.8548 124.359Z" fill="#062E54"/>
<path d="M65.3348 191.743C65.2839 191.743 65.2321 191.739 65.1802 191.732C64.6034 191.647 64.2045 191.111 64.2892 190.534L83.3974 60.3134C83.4671 59.8385 83.8483 59.4704 84.3253 59.4176L103.393 57.3058C103.955 57.2433 104.468 57.637 104.553 58.1971L124.552 190.53C124.639 191.106 124.242 191.644 123.666 191.731C123.088 191.818 122.552 191.422 122.465 190.845L102.617 59.5158L85.3675 61.4263L66.3775 190.841C66.3007 191.365 65.8498 191.743 65.3348 191.743Z" fill="#062E54"/>
<path d="M139.433 85.5739H49.5987C49.1175 85.5739 48.6972 85.2486 48.5769 84.7826C48.4565 84.3167 48.6663 83.8283 49.0874 83.5953L83.223 64.6892C83.7325 64.4066 84.3752 64.591 84.6575 65.101C84.9398 65.611 84.7557 66.2532 84.2457 66.5356L53.6825 83.4631H135.559L103.784 64.7612C103.281 64.4654 103.114 63.8188 103.409 63.3164C103.705 62.8143 104.352 62.6465 104.854 62.9423L139.968 83.609C140.378 83.8505 140.576 84.3367 140.451 84.7961C140.326 85.2552 139.909 85.5739 139.433 85.5739Z" fill="#062E54"/>
<path d="M138.025 118.29H49.5987C49.176 118.29 48.7943 118.038 48.6283 117.65C48.4623 117.261 48.5441 116.811 48.8362 116.505L80.2202 83.6993C80.6231 83.2779 81.2914 83.2631 81.7125 83.6663C82.1336 84.0692 82.1484 84.7372 81.7455 85.1583L52.0688 116.18H135.599L106.672 85.1362C106.274 84.7098 106.298 84.042 106.724 83.6447C107.151 83.2473 107.819 83.2708 108.216 83.6972L138.797 116.515C139.084 116.823 139.16 117.271 138.993 117.656C138.825 118.041 138.445 118.29 138.025 118.29Z" fill="#062E54"/>
<path d="M107.229 84.0243C106.961 84.0243 106.693 83.9229 106.487 83.7198L83.7001 61.2175C83.2853 60.808 83.2811 60.1397 83.6906 59.7249C84.1003 59.3099 84.7686 59.3062 85.1831 59.7154L107.97 82.2177C108.385 82.6272 108.389 83.2955 107.98 83.7103C107.773 83.9195 107.501 84.0243 107.229 84.0243Z" fill="#062E54"/>
<path d="M81.1396 84.0243C80.8863 84.0243 80.6322 83.9338 80.4301 83.7499C79.9987 83.3581 79.9671 82.6905 80.3589 82.2592L102.728 57.6451C103.12 57.2139 103.788 57.1818 104.219 57.5738C104.65 57.9656 104.682 58.6331 104.29 59.0645L81.9206 83.6786C81.7126 83.9079 81.4264 84.0243 81.1396 84.0243Z" fill="#062E54"/>
<path d="M69.8447 159.636C69.5697 159.636 69.2948 159.53 69.088 159.317C68.6816 158.899 68.6909 158.231 69.1088 157.825L110.681 117.393L79.9583 85.182C79.5559 84.7601 79.5717 84.0923 79.9936 83.69C80.4155 83.2876 81.0833 83.3035 81.4856 83.7253L112.929 116.693C113.329 117.111 113.316 117.774 112.901 118.178L70.5802 159.338C70.3752 159.537 70.1096 159.636 69.8447 159.636Z" fill="#062E54"/>
<path d="M118.266 159.402C118.001 159.402 117.736 159.303 117.53 159.103L75.2092 117.943C74.7942 117.539 74.7818 116.877 75.1815 116.458L106.625 83.4906C107.028 83.0684 107.696 83.0528 108.117 83.4552C108.539 83.8576 108.555 84.5256 108.153 84.9472L77.4302 117.158L119.002 157.59C119.42 157.996 119.429 158.664 119.023 159.082C118.816 159.295 118.541 159.402 118.266 159.402Z" fill="#062E54"/>
<path d="M119.024 161.033H69.9493C69.3665 161.033 68.8939 160.56 68.8939 159.977C68.8939 159.394 69.3665 158.922 69.9493 158.922H119.024C119.607 158.922 120.079 159.394 120.079 159.977C120.079 160.56 119.607 161.033 119.024 161.033Z" fill="#062E54"/>
<path d="M65.5299 190.396C65.3239 190.396 65.1157 190.336 64.9329 190.21C64.4524 189.88 64.3308 189.223 64.6611 188.743L84.83 159.411C85.1601 158.931 85.8173 158.809 86.2975 159.139C86.7779 159.469 86.8996 160.126 86.5693 160.607L66.4006 189.939C66.1959 190.236 65.8658 190.396 65.5299 190.396Z" fill="#062E54"/>
<path d="M123.478 190.396C123.143 190.396 122.812 190.236 122.608 189.939L102.439 160.607C102.109 160.126 102.23 159.469 102.711 159.139C103.191 158.809 103.848 158.93 104.178 159.411L124.347 188.743C124.678 189.223 124.556 189.88 124.075 190.21C123.893 190.336 123.684 190.396 123.478 190.396Z" fill="#062E54"/>
<path d="M123.939 168.272C123.919 167.182 123.029 166.241 121.939 166.241H55.8331C54.7286 166.241 53.7334 167.274 53.7334 168.379V322.659C53.7334 323.483 54.1115 324.274 54.6951 324.856C55.279 325.438 56.0953 325.764 56.9198 325.762L123.728 325.579C124.56 325.577 125.362 325.241 125.943 324.646C126.525 324.052 126.847 323.215 126.831 322.383L123.939 168.272Z" fill="#2C7CC8"/>
<path d="M118.745 172.378H58.0548C57.7044 172.378 57.4226 173.012 57.4258 173.369L57.4617 178.039C57.4646 178.395 57.7506 178.77 58.1007 178.77L118.83 178.83C119.183 178.83 119.552 178.584 119.552 178.227V173.716C119.552 173.359 119.098 172.378 118.745 172.378Z" fill="#96CAFF"/>
<path d="M118.83 184.256L58.1847 184.223C57.8349 184.223 57.5325 184.511 57.5354 184.866L57.5605 189.351C57.5634 189.706 57.8436 189.994 58.1932 189.994L118.833 190.044C119.185 190.045 119.552 189.756 119.552 189.4V184.902C119.552 184.545 119.182 184.256 118.83 184.256Z" fill="#96CAFF"/>
<path d="M118.831 195.411L58.2723 195.345C57.923 195.344 57.6209 195.632 57.6238 195.986L57.6489 200.457C57.6518 200.811 57.9317 201.099 58.2808 201.099L118.834 201.182C119.186 201.183 119.552 200.895 119.552 200.54V196.055C119.552 195.7 119.182 195.412 118.831 195.411Z" fill="#96CAFF"/>
<path d="M118.832 206.534L58.3598 206.435C58.011 206.435 57.7094 206.721 57.7121 207.074L57.7369 211.533C57.7398 211.886 58.0192 212.173 58.368 212.173L118.835 212.289C119.186 212.29 119.552 212.004 119.552 211.649V207.177C119.552 206.823 119.183 206.535 118.832 206.534Z" fill="#96CAFF"/>
<path d="M118.833 217.625L58.4469 217.494C58.0986 217.493 57.7973 217.779 57.8002 218.131L57.825 222.577C57.8276 222.929 58.107 223.215 58.455 223.216L118.836 223.364C119.186 223.365 119.552 223.079 119.552 222.726V218.267C119.552 217.914 119.184 217.626 118.833 217.625Z" fill="#96CAFF"/>
<path d="M118.834 228.685L58.5338 228.521C58.1858 228.52 57.8851 228.804 57.888 229.156L57.9128 233.589C57.9154 233.94 58.1943 234.226 58.542 234.227L118.837 234.407C119.187 234.408 119.552 234.124 119.552 233.772V229.325C119.552 228.973 119.184 228.686 118.834 228.685Z" fill="#96CAFF"/>
<path d="M118.835 239.713L58.6202 239.517C58.273 239.516 57.9725 239.799 57.9751 240.15L57.9999 244.571C58.0026 244.921 58.2809 245.205 58.6281 245.207L118.838 245.419C119.187 245.421 119.552 245.137 119.552 244.786V240.352C119.552 240 119.184 239.714 118.835 239.713Z" fill="#96CAFF"/>
<path d="M118.836 250.71L58.7066 250.482C58.3596 250.48 58.0596 250.763 58.0625 251.112L58.0871 255.52C58.09 255.869 58.3678 256.154 58.7145 256.155L118.839 256.399C119.187 256.401 119.552 256.118 119.552 255.768V251.347C119.552 250.996 119.184 250.711 118.836 250.71Z" fill="#96CAFF"/>
<path d="M118.837 261.675L58.7929 261.415C58.4465 261.414 58.147 261.695 58.1497 262.044L58.1742 266.439C58.1768 266.787 58.4547 267.071 58.8006 267.072L118.84 267.349C119.188 267.35 119.552 267.068 119.552 266.719V262.311C119.552 261.961 119.185 261.677 118.837 261.675Z" fill="#96CAFF"/>
<path d="M118.837 271.8L58.8723 271.511C58.5264 271.51 58.2272 271.79 58.2299 272.138L58.2542 276.522C58.2568 276.869 58.5341 277.152 58.8797 277.154L118.84 277.459C119.188 277.461 119.552 277.18 119.552 276.832V272.435C119.552 272.086 119.185 271.802 118.837 271.8Z" fill="#96CAFF"/>
<path d="M118.839 282.706L58.9582 282.385C58.6128 282.383 58.3139 282.663 58.3165 283.01L58.3408 287.381C58.3435 287.727 58.6202 288.01 58.9653 288.011L118.841 288.349C119.189 288.351 119.552 288.071 119.552 287.724V283.339C119.552 282.991 119.186 282.708 118.839 282.706Z" fill="#96CAFF"/>
<path d="M118.839 293.581L59.0438 293.228C58.6987 293.226 58.4003 293.505 58.4032 293.851L58.4275 298.21C58.4301 298.555 58.7066 298.837 59.0512 298.839L118.843 299.207C119.189 299.209 119.552 298.93 119.552 298.584V294.212C119.552 293.865 119.186 293.582 118.839 293.581Z" fill="#96CAFF"/>
<path d="M118.84 304.424L59.1287 304.041C58.7844 304.039 58.4863 304.317 58.4889 304.661L58.5129 309.008C58.5156 309.353 58.7915 309.633 59.1358 309.636L118.843 310.035C119.189 310.037 119.552 309.759 119.552 309.414V305.054C119.552 304.708 119.187 304.427 118.84 304.424Z" fill="#96CAFF"/>
<path d="M65.2868 214.554C65.2757 213.758 64.9438 213.001 64.3665 212.454C63.789 211.907 63.0151 211.616 62.2202 211.648L1.82435 214.07C0.787717 214.111 -0.0241257 214.977 0.000675476 216.014L3.06652 345.126L64.1354 344.381C64.9182 344.372 65.6652 344.051 66.2116 343.491C66.758 342.93 67.0588 342.175 67.048 341.392L65.2868 214.554Z" fill="#96CAFF"/>
<path d="M16.652 238.157L6.93313 238.111L6.81836 221.452H16.5584L16.652 238.157Z" fill="#2C7CC8"/>
<path d="M30.6028 238.126L20.9201 238.08L20.8362 221.452H30.54L30.6028 238.126Z" fill="#2C7CC8"/>
<path d="M45.2726 238.094L35.6281 238.048L35.5762 221.452H45.2418L45.2726 238.094Z" fill="#2C7CC8"/>
<path d="M60.4515 238.196L50.3685 238.083L49.8724 221.452H60.4515V238.196Z" fill="#2C7CC8"/>
<path d="M16.7847 261.837L7.09616 261.889L6.98218 245.401L16.6918 245.37L16.7847 261.837Z" fill="#2C7CC8"/>
<path d="M30.6921 261.763L21.0397 261.815L20.9561 245.357L30.6298 245.326L30.6921 261.763Z" fill="#2C7CC8"/>
<path d="M45.3167 261.685L35.7017 261.736L35.6503 245.311L45.2858 245.28L45.3167 261.685Z" fill="#2C7CC8"/>
<path d="M60.4516 261.609L50.3982 261.66L50.6151 245.266L60.4516 245.235V261.609Z" fill="#2C7CC8"/>
<path d="M16.9212 286.016L7.26382 286.099L7.15063 269.716L16.8289 269.654L16.9212 286.016Z" fill="#2C7CC8"/>
<path d="M30.7844 285.897L21.1626 285.98L21.0797 269.627L30.7221 269.565L30.7844 285.897Z" fill="#2C7CC8"/>
<path d="M45.362 285.772L35.7779 285.854L35.7264 269.533L45.3313 269.471L45.362 285.772Z" fill="#2C7CC8"/>
<path d="M60.4513 285.651L50.4285 285.733L50.6454 269.442L60.4513 269.381V285.651Z" fill="#2C7CC8"/>
<path d="M17.0549 309.654L7.42814 309.768L7.31812 293.876L16.9655 293.783L17.0549 309.654Z" fill="#2C7CC8"/>
<path d="M30.8744 309.492L21.283 309.605L21.2025 293.742L30.8143 293.649L30.8744 309.492Z" fill="#2C7CC8"/>
<path d="M45.4063 309.322L35.8521 309.434L35.8025 293.602L45.3768 293.509L45.4063 309.322Z" fill="#2C7CC8"/>
<path d="M60.4518 309.156L50.4585 309.268L50.6762 293.465L60.4518 293.374V309.156Z" fill="#2C7CC8"/>
<path d="M17.1891 333.529L7.59287 333.672L7.48364 317.881L17.1002 317.758L17.1891 333.529Z" fill="#2C7CC8"/>
<path d="M30.9644 333.323L21.4035 333.466L21.3236 317.704L30.9045 317.581L30.9644 333.323Z" fill="#2C7CC8"/>
<path d="M45.4503 333.107L35.9264 333.25L35.8771 317.517L45.4208 317.395L45.4503 333.107Z" fill="#2C7CC8"/>
<path d="M60.4515 332.898L50.4883 333.039L50.7062 317.336L60.4515 317.215V332.898Z" fill="#2C7CC8"/>
<path d="M8.20822 327.994L158.131 69.6678C164.534 58.6355 180.462 58.6234 186.881 69.6457L337.201 327.74C343.655 338.821 335.668 352.727 322.845 352.737L22.6024 352.968C9.77967 352.978 1.77179 339.084 8.20822 327.994Z" fill="#0055A5"/>
<path d="M38.4967 345.716C32.9547 345.716 27.9944 342.85 25.2267 338.047C22.4569 333.241 22.4654 327.508 25.2497 322.71L159.782 90.9037C162.552 86.1313 167.5 83.2795 173.018 83.2752C173.022 83.2752 173.026 83.2752 173.03 83.2752C178.543 83.2752 183.49 86.1187 186.265 90.8834L321.154 322.483C323.946 327.276 323.963 333.009 321.201 337.819C318.438 342.629 313.477 345.504 307.93 345.508L38.5091 345.716C38.5051 345.716 38.5009 345.716 38.4967 345.716ZM173.03 84.0668C173.026 84.0668 173.022 84.0668 173.018 84.0668C167.786 84.0707 163.093 86.7751 160.467 91.3011L25.9344 323.108C23.2938 327.657 23.2859 333.095 25.9125 337.652C28.5372 342.206 33.2412 344.924 38.4967 344.924C38.5009 344.924 38.5043 344.924 38.5085 344.924L307.93 344.717C313.19 344.712 317.894 341.987 320.514 337.425C323.134 332.864 323.117 327.427 320.47 322.881L185.581 91.2818C182.95 86.7635 178.258 84.0668 173.03 84.0668Z" fill="#55ACFF"/>
<path d="M166.77 133.245L129.669 228.872C128.463 231.979 129.883 236.012 132.147 235.911L183.316 233.645C183.875 233.62 184.172 234.706 183.786 235.361L143.669 308.48L152.998 310.396L209.173 218.874C209.883 217.717 209.342 215.747 208.336 215.828L146.345 220.775C145.454 220.846 144.915 219.203 145.449 218.046L187.246 133.86C187.779 132.787 187.08 131.472 185.976 131.473L168.734 131.486C167.937 131.487 167.195 132.151 166.77 133.245Z" fill="#062E54"/>
<path d="M137.114 280.271L135.418 333.774C135.37 335.278 137.161 336.091 138.262 335.067L179.44 296.75C180.602 295.669 179.968 293.724 178.393 293.534L154.22 295.809L138.452 279.551C137.878 279.197 137.135 279.596 137.114 280.271Z" fill="#062E54"/>
<path d="M60.1683 310.594C59.4383 308.653 59.123 306.344 59.6034 303.652C56.6552 303.139 53.905 302.088 51.4916 300.414C51.2048 304.558 52.305 309.134 56.1207 313.672C57.9731 315.876 60.4649 318.07 63.7489 320.202L64.7162 322.267L67.6224 318.647C67.6224 318.647 62.2366 316.093 60.1683 310.594Z" fill="#FFD1CE"/>
<path d="M101.054 292.563C98.0743 293.085 95.4665 292.695 93.1623 291.84C93.1017 292.352 93.0154 292.866 92.8959 293.384C92.3924 295.65 91.6991 297.844 90.7268 299.867C95.191 300.527 99.2225 299.232 102.228 297.686C102.27 295.59 101.697 293.847 101.054 292.563Z" fill="#FFD1CE"/>
<path d="M93.1624 291.84C89.2918 290.404 86.2785 287.656 83.8031 285.708C78.5893 281.606 74.6322 283.724 74.6322 283.724L80.3127 294.467C83.8609 297.81 87.413 299.377 90.7266 299.867C91.6988 297.844 92.3922 295.65 92.8956 293.384C93.0151 292.866 93.1014 292.352 93.1624 291.84Z" fill="#B2CFEA"/>
<path d="M112.214 287.392L109.587 288.925C106.44 290.998 103.61 292.115 101.054 292.563C101.697 293.847 102.27 295.59 102.228 297.686C105.561 295.972 107.634 293.951 107.634 293.951C113.578 290.115 112.214 287.392 112.214 287.392Z" fill="#55ACFF"/>
<g filter="url(#filter0_b_62_288)">
<path d="M82.3039 362.317L81.7129 365.379C80.6987 370.634 82.7487 375.448 86.2918 376.132L90.5041 376.945C94.0472 377.629 97.7415 373.923 98.7555 368.668L99.3465 365.606C99.3855 365.403 99.4204 365.199 99.4507 364.996L113.052 273.455L103.875 271.684L82.434 361.711C82.3865 361.912 82.3429 362.114 82.3039 362.317ZM86.6153 362.899C87.3789 358.943 89.9033 356.104 92.2542 356.557C94.605 357.011 95.8918 360.586 95.1282 364.542C94.3646 368.499 91.8399 371.338 89.4891 370.884C87.1383 370.43 85.8518 366.856 86.6153 362.899Z" fill="#B2CFEA" fill-opacity="0.8"/>
<path d="M105.236 239.766L101.807 257.534C101.562 258.8 101.919 260.106 102.773 261.072L107.147 266.02C108.395 267.433 110.439 267.827 112.123 266.981L118.025 264.015C119.176 263.437 119.993 262.356 120.238 261.091L123.667 243.323C124.184 240.643 127.639 239.779 129.306 241.94C133.295 247.11 135.126 254.025 133.762 261.094C131.296 273.873 119.635 280.74 107.345 278.368C95.0537 275.996 86.7865 265.282 89.2526 252.505C90.6172 245.435 94.8896 239.698 100.516 236.384C102.868 234.998 105.753 237.086 105.236 239.766Z" fill="#B2CFEA" fill-opacity="0.8"/>
<path d="M106.91 240.089L103.481 257.858C103.237 259.123 103.593 260.43 104.447 261.395L108.821 266.344C110.07 267.757 112.113 268.151 113.797 267.304L119.699 264.339C120.85 263.76 121.667 262.68 121.912 261.415L125.341 243.647C125.858 240.966 129.313 240.103 130.981 242.264C134.969 247.434 136.8 254.349 135.436 261.418C132.97 274.196 121.309 281.063 109.019 278.691C96.7278 276.319 88.4606 265.606 90.9267 252.828C92.291 245.758 96.5637 240.022 102.19 236.707C104.542 235.322 107.427 237.409 106.91 240.089Z" fill="#2C7CC8" fill-opacity="0.8"/>
<path d="M83.6398 362.575L83.0488 365.637C82.0346 370.892 84.0847 375.706 87.6278 376.39L91.84 377.202C95.3832 377.886 99.0775 374.181 100.091 368.926L100.682 365.864C100.721 365.661 100.756 365.457 100.787 365.253L114.388 273.712L105.211 271.941L83.7702 361.969C83.7224 362.17 83.6789 362.372 83.6398 362.575ZM87.951 363.157C88.7146 359.201 91.239 356.362 93.5898 356.815C95.9404 357.269 97.2274 360.844 96.4639 364.8C95.7003 368.756 93.1756 371.596 90.825 371.142C88.4742 370.688 87.1874 367.113 87.951 363.157Z" fill="#2C7CC8" fill-opacity="0.8"/>
</g>
<path d="M112.557 291.355C112.655 290.781 112.487 290.198 112.106 289.758C111.368 288.904 110.093 287.735 109.169 288.523C107.791 289.697 109.301 293.712 109.301 293.712L110.827 296.044L110.849 297.532C111.675 296.565 112.169 294.186 112.557 291.355Z" fill="#FFD1CE"/>
<path d="M77.357 377.885C77.3568 377.821 77.3515 377.757 77.3338 377.692C76.2985 373.892 71.4736 371.604 71.4736 371.604L69.5821 371.788C68.5566 375.174 68.7355 377.236 68.9278 378.152C68.9331 378.177 68.9413 378.202 68.9486 378.227C70.514 378.336 73.7318 378.367 77.357 377.885Z" fill="#B2CFEA"/>
<path d="M68.9491 378.226C69.0393 378.532 69.2705 378.766 69.5617 378.822C71.7933 379.247 75.3188 378.805 76.7984 378.583C77.1248 378.534 77.3583 378.227 77.3572 377.885C73.732 378.367 70.5142 378.336 68.9491 378.226Z" fill="#062E54"/>
<path d="M68.7673 368.981L69.6425 372.828C69.7066 373.11 69.9282 373.318 70.1918 373.338C70.5148 373.362 70.9741 373.371 71.4343 373.294C71.8469 373.226 72.1271 372.8 72.0453 372.35L71.4229 368.931L68.7673 368.981Z" fill="#55ACFF"/>
<path d="M85.5628 377.874C83.4698 377.855 82.383 377.629 81.8195 377.411C81.8221 377.619 81.8271 377.831 81.8382 378.05C81.8498 378.284 82.0268 378.468 82.2403 378.462L93.7251 378.171C94.0916 378.162 94.2979 377.733 94.1325 377.4C92.6288 377.553 88.7986 377.903 85.5628 377.874Z" fill="#062E54"/>
<path d="M94.133 377.4C94.1185 377.371 94.1061 377.341 94.0858 377.314C93.0447 375.916 90.4079 373.142 85.2793 372.015L82.8287 371.983C82.8287 371.983 81.7742 373.899 81.8198 377.411C82.3834 377.629 83.4701 377.855 85.5632 377.874C88.7989 377.903 92.6291 377.553 94.133 377.4Z" fill="#B2CFEA"/>
<path d="M82.3046 368.28C82.3352 368.462 82.7233 371.23 82.8737 372.304C82.9093 372.559 83.0982 372.753 83.3322 372.777C83.7502 372.818 84.4259 372.851 85.014 372.719C85.3311 372.647 85.5561 372.337 85.5493 371.982L85.467 367.626L82.3046 368.28Z" fill="#55ACFF"/>
<path d="M79.1608 316.146C79.1608 316.146 85.9687 344.408 86.3954 372.66C86.403 373.175 82.4633 373.63 82.3734 373.156C81.4533 368.314 75.3887 336.779 72.5967 332.388C72.5967 332.388 72.6597 360.181 73.4679 372.814C73.4879 373.128 69.9147 374.157 69.1686 373.355C69.1686 373.355 64.1331 342.596 63.9266 323.292C63.916 322.298 65.7101 316.146 65.7101 316.146H79.1608Z" fill="#062E54"/>
<path d="M84.1974 286.082C83.7763 285.543 84.3071 287.179 84.1974 286.082V286.082Z" fill="#FDF53F"/>
<path d="M84.1973 286.082C84.187 285.98 84.1715 285.855 84.149 285.702C76.701 280.538 65.6875 283.431 61.4177 284.051C60.0178 284.254 58.7474 284.97 57.8427 286.058C55.6676 288.673 51.9334 294.031 51.4915 300.414C53.9048 302.088 56.6554 303.139 59.6033 303.652C59.8489 302.275 60.3025 300.797 61.0162 299.216C61.0982 299.581 61.1977 299.943 61.3172 300.299C64.5253 309.831 66.1988 315.274 66.2268 317.114C66.2305 317.364 80.922 316.755 78.32 316.679C77.2327 316.648 83.3852 294.944 86.5999 291.093C86.7912 290.863 83.7762 285.543 84.1973 286.082Z" fill="#B2CFEA"/>
<path d="M68.158 276.213L67.5382 284.073C67.5382 284.073 71.9763 285.318 75.1432 282.993L72.7523 275.906L68.158 276.213Z" fill="#FFD1CE"/>
<path d="M73.1097 267.176C73.2178 267.274 77.7565 275.785 77.7565 275.785L72.8416 278.273L67.3416 270.845C67.341 270.845 71.2997 265.535 73.1097 267.176Z" fill="#FFD1CE"/>
<path d="M71.4572 268.998C70.3549 269.16 69.7715 270.377 69.5396 271.012C69.4554 271.243 69.4821 271.498 69.6121 271.706L72.1638 275.783C72.2025 275.845 72.2482 275.901 72.3025 275.949C72.6023 276.218 73.6249 276.996 74.3832 275.896C75.0296 274.958 75.6367 274.105 76.2976 273.746C76.6836 273.536 77.1665 273.688 77.3715 274.077C77.7944 274.877 78.615 276.509 79.1403 278.061C79.2719 278.45 79.0777 278.874 78.7002 279.035C77.7037 279.461 75.7325 280.234 73.9753 280.511C73.6867 280.556 73.398 280.44 73.2212 280.207C72.4437 279.183 70.253 276.322 69.5103 275.61C68.8204 274.948 67.575 275.226 67.0149 275.398C66.8022 275.464 66.574 275.438 66.3814 275.327C65.8033 274.994 64.7899 274.156 65.6748 272.687C65.8949 272.322 65.7701 271.843 65.4097 271.616C64.7638 271.208 64.0564 270.433 64.692 269.145C65.4949 267.518 67.7705 267.671 69.0475 266.472C69.677 265.882 70.2955 265.224 71.1131 264.947C71.2886 264.888 71.4725 264.847 71.6574 264.851C72.4608 264.867 73.6774 266.191 73.732 266.991C73.8109 268.133 72.4173 268.857 71.4572 268.998Z" fill="#B2CFEA"/>
<path d="M70.4686 277.107C70.4686 277.107 69.4644 274.34 68.2481 274.466C67.0318 274.591 66.096 275.822 67.6315 277.158C69.5415 278.82 70.4686 277.107 70.4686 277.107Z" fill="#FFD1CE"/>
<path d="M60.601 298.506C58.9124 294.142 59.3947 288.825 59.3998 288.772L59.843 288.814C59.8383 288.866 59.3662 294.081 61.0166 298.345L60.601 298.506Z" fill="#B2CFEA"/>
<path d="M72.3685 331.819C72.2696 331.821 72.1778 331.756 72.1501 331.656C71.6245 329.776 67.9173 327.769 67.8798 327.749C67.7714 327.691 67.7305 327.556 67.7888 327.448C67.8468 327.339 67.9814 327.298 68.0904 327.357C68.2497 327.442 72.0026 329.474 72.5791 331.536C72.6123 331.655 72.543 331.778 72.4245 331.811C72.406 331.816 72.387 331.819 72.3685 331.819Z" fill="#062E54"/>
<path d="M61.7969 301.992L67.2785 293.734C67.3178 293.675 67.384 293.639 67.455 293.639H77.4908C77.6554 293.639 77.8079 293.726 77.8915 293.868L82.6613 301.939C82.7441 302.079 82.7734 302.245 82.7441 302.405C80.8558 308.138 79.0292 313.78 79.1606 316.525C75.7402 319.198 69.7222 318.639 65.6139 317.41C65.4026 313.828 63.6401 308.19 61.7259 302.35C61.7014 302.226 61.7267 302.097 61.7969 301.992Z" fill="#062E54"/>
<path d="M63.657 283.759L67.3411 294.346H69.5581L66.282 283.322C66.2498 283.213 66.1398 283.148 66.0292 283.17L63.7212 283.646C63.6702 283.657 63.6399 283.71 63.657 283.759Z" fill="#062E54"/>
<path d="M76.2759 283.015L75.3715 294.054L77.4176 294.305L79.1592 283.299C79.1718 283.219 79.1143 283.146 79.0341 283.138L76.4139 282.899C76.3435 282.892 76.2817 282.944 76.2759 283.015Z" fill="#062E54"/>
<path d="M75.9169 267.721C71.5424 259.458 60.2046 266.964 65.4812 273.925C69.4045 271.317 73.8376 267.439 75.9169 267.721Z" fill="#062E54"/>
<path d="M75.631 266.83C84.4747 266.38 77.1948 269.659 69.1407 271.409C71.1457 269.281 73.1501 267.695 75.631 266.83Z" fill="#062E54"/>
<path d="M461.05 96.1572L463.264 98.3405C466.407 98.0384 468.829 97.0606 470.689 95.8203C469.57 93.0365 468.433 91.3851 467.539 90.4173C464.614 94.5322 461.05 96.1572 461.05 96.1572Z" fill="#FFD1CE"/>
<path d="M476.461 87.9879L471.236 79.8186C470.893 84.4266 469.336 87.8903 467.54 90.4171C468.433 91.3849 469.57 93.0363 470.69 95.8201C475.332 92.7249 476.461 87.9879 476.461 87.9879Z" fill="#B2CFEA"/>
<path d="M482.017 152.553C479.412 152.673 476.891 152.598 475.207 152.512C476.74 151.421 480.271 149.047 483.227 148.102L485.255 147.98C485.255 147.98 485.942 149.026 486.188 151.418C485.851 151.837 484.869 152.422 482.017 152.553Z" fill="#062E54"/>
<path d="M475.186 152.527C475.193 152.522 475.201 152.517 475.208 152.512C476.891 152.598 479.413 152.674 482.018 152.554C484.869 152.423 485.852 151.838 486.188 151.418C486.199 151.528 486.211 151.638 486.22 151.754C486.263 152.279 485.873 152.74 485.348 152.779C483.214 152.941 477.924 153.306 475.373 153.172C475.037 153.155 474.912 152.722 475.186 152.527Z" fill="#B2CFEA"/>
<path d="M500.649 151.856C500.84 150.634 501.145 148.866 501.382 148.414C501.752 147.704 503.022 148.414 503.022 148.414C503.022 148.414 503.913 148.829 504.323 149.522C504.585 149.963 505.307 151.219 505.797 152.072C505.854 152.17 505.877 152.275 505.874 152.376L500.792 152.554C500.668 152.354 500.609 152.111 500.649 151.856Z" fill="#062E54"/>
<path d="M505.875 152.376C505.866 152.666 505.636 152.929 505.311 152.938L501.691 153.038C501.308 153.048 500.977 152.85 500.792 152.554L505.875 152.376Z" fill="#B2CFEA"/>
<path d="M500.261 144.349C500.304 144.495 500.961 147.679 501.249 149.077C501.328 149.463 501.676 149.734 502.07 149.714C502.285 149.703 502.535 149.684 502.797 149.65C503.263 149.59 503.617 149.201 503.635 148.732C503.682 147.508 503.705 145.158 503.256 144.247C502.636 142.991 500.261 144.349 500.261 144.349Z" fill="#FFD1CE"/>
<path d="M485.654 145.26C485.372 145.251 485.766 146.715 485.34 148.153C485.244 148.477 485.002 148.732 484.663 148.737C484.444 148.739 484.184 148.735 483.92 148.714C483.524 148.682 483.205 148.375 483.168 147.978L482.821 144.247L485.654 145.26Z" fill="#FFD1CE"/>
<path d="M477.775 105.604C477.902 106.222 481.395 135.46 481.586 148.737C480.913 149.488 486.055 150.815 486.188 150.013C486.733 146.715 487.391 122.026 485.864 112.091C485.864 112.091 499.01 143.463 500.637 150.326C500.64 150.326 504.159 151.418 505.07 149.715C505.07 149.715 495.61 110.97 490.124 103.792L477.775 105.604Z" fill="#062E54"/>
<path d="M485.864 112.257C485.906 112.257 485.947 112.241 485.98 112.21C486.045 112.146 486.046 112.041 485.982 111.976L484.293 110.248C484.229 110.183 484.124 110.182 484.058 110.245C483.993 110.309 483.992 110.414 484.056 110.48L485.745 112.208C485.778 112.241 485.821 112.257 485.864 112.257Z" fill="#062E54"/>
<path d="M470.562 73.1969C473.803 72.3479 479.782 71.0184 484.541 71.302C485.634 71.3672 486.51 72.2315 486.572 73.3246C487.291 86.0001 488.274 97.248 490.124 103.793C485.965 105.438 484.444 104.671 480.377 104.074C477.33 97.5469 472.064 91.5426 469.788 82.9857C469.788 82.9857 468.452 76.1609 469.749 73.8861C469.951 73.5315 470.217 73.2871 470.562 73.1969Z" fill="#B2CFEA"/>
<path d="M478.358 64.3178C478.358 64.3178 479.177 69.2005 479.421 71.4584C479.46 71.8254 479.268 72.1724 478.94 72.3412C478.046 72.8016 476.136 73.5433 474.055 72.8629C473.713 72.7507 473.488 72.4193 473.496 72.0587L473.639 65.5402L478.358 64.3178Z" fill="#FFD1CE"/>
<path d="M473.02 58.9077C473.02 58.9077 471.441 62.5352 471.335 64.4391C471.229 66.343 470.819 67.5786 473.02 67.962C475.222 68.3453 477.076 67.2488 478.081 65.352C478.081 65.352 479.655 62.4297 479.302 61.2329C478.949 60.0361 473.02 58.9077 473.02 58.9077Z" fill="#FFD1CE"/>
<path d="M477.329 63.9885H477.05C477.05 63.9885 478.197 61.6363 477.189 61.2231C475.942 60.7116 474.594 60.4765 473.346 59.9504C472.924 59.7728 472.588 59.6704 472.514 59.1668C472.403 58.4035 472.68 57.5935 473.237 57.0592C474.095 56.2347 475.02 56.4046 476.064 56.5972C477.408 56.8452 478.971 57.265 479.917 58.3272C480.344 58.8071 480.362 59.2799 480.603 59.8237C480.829 60.3321 481.447 60.5561 481.573 61.2411C481.66 61.7118 481.535 62.2046 481.296 62.6191C481.134 62.9001 480.92 63.1521 480.789 63.4487C480.657 63.7449 480.614 64.0798 480.665 64.3995C480.718 64.7238 480.992 64.5658 480.881 64.9288C480.808 65.17 480.405 65.3689 480.208 65.4747C479.036 66.1008 478.343 66.0325 478.082 65.9654C478.011 65.9475 477.964 65.8834 477.969 65.8108L478.071 64.1473C478.077 64.0613 478.008 63.9885 477.922 63.9885H477.329Z" fill="#062E54"/>
<path d="M477.26 64.3367C477.26 64.3367 477.863 62.0197 478.902 62.6692C479.941 63.3188 478.363 65.2655 477.527 65.3523L477.26 64.3367Z" fill="#FFD1CE"/>
<path d="M499.877 89.51C499.807 88.7 499.697 87.8425 499.533 86.9315C498.105 78.9864 487.92 72.875 485.523 71.5368C485.3 71.4123 485.029 71.5803 485.037 71.8355L485.378 82.6356C491.05 83.3981 493.735 86.6439 494.959 90.0786C496.562 94.5755 495.659 99.3967 495.659 99.3967L497.772 99.96C497.772 99.96 500.502 96.7137 499.877 89.51Z" fill="#FFD1CE"/>
<path d="M472.812 81.7493L481.552 80.924C481.595 80.9201 481.638 80.9346 481.669 80.9641L487.875 86.8024C487.961 86.884 489.58 104.111 489.58 104.111C490.116 103.728 490.059 103.802 489.978 103.814L477.26 100.094L470.758 87.213C470.714 87.0879 470.713 86.9515 470.756 86.8262L472.385 82.086C472.449 81.8995 472.616 81.7678 472.812 81.7493Z" fill="#062E54"/>
<path d="M470.148 73.4914L472.489 82.1319L474.813 81.5602L472.425 72.7344L470.46 73.017C470.235 73.0494 470.089 73.2718 470.148 73.4914Z" fill="#062E54"/>
<path d="M481.62 80.9175L482.633 71.2141C482.649 71.0556 482.511 70.9244 482.353 70.9498L480.561 71.2381C480.47 71.2529 480.4 71.3271 480.391 71.4191L479.425 81.1248L481.62 80.9175Z" fill="#062E54"/>
<path d="M482.875 63.4543L471.452 57.6482C471.287 57.5643 471.274 57.3334 471.429 57.2316L472.038 56.83C472.038 56.83 474.079 51.2239 479.378 53.5119C484.677 55.8 482.922 62.2578 482.922 62.2578L483.162 63.2256C483.204 63.3936 483.029 63.5327 482.875 63.4543Z" fill="#0055A5"/>
<path d="M496.4 80.4457C492.766 75.7921 487.211 72.4795 485.523 71.5368C485.3 71.4123 485.029 71.5803 485.037 71.8355L485.377 82.6356C487.755 82.9551 489.606 83.7123 491.047 84.7355C492.537 82.9736 494.365 81.519 496.4 80.4457Z" fill="#B2CFEA"/>
<g filter="url(#filter1_b_62_288)">
<path d="M510.544 101.939L446.628 88.6873L445.013 95.0784L507.549 113.79C507.688 113.832 507.829 113.87 507.97 113.906L510.102 114.445C513.762 115.37 517.234 114.12 517.858 111.652L518.6 108.718C519.223 106.251 516.762 103.501 513.103 102.575L510.97 102.036C510.829 102.001 510.687 101.968 510.544 101.939ZM514.292 109.19C513.878 110.827 511.309 111.59 508.553 110.893C505.798 110.197 503.9 108.305 504.314 106.668C504.727 105.031 507.296 104.268 510.052 104.964C512.807 105.661 514.705 107.553 514.292 109.19Z" fill="#B2CFEA" fill-opacity="0.8"/>
<path d="M425.836 80.0032L438.211 83.1311C439.092 83.3537 439.82 83.9727 440.181 84.8067L442.032 89.0815C442.561 90.3018 442.201 91.7247 441.156 92.5473L437.496 95.4287C436.782 95.991 435.848 96.1897 434.966 95.967L422.592 92.8391C420.725 92.3674 419.139 94.3156 420.021 96.0271C422.129 100.122 425.997 103.361 430.921 104.605C439.82 106.855 447.696 101.463 449.859 92.9032C452.023 84.3434 447.655 75.8569 438.756 73.6074C433.832 72.3629 428.89 73.3747 425.089 75.9759C423.5 77.0637 423.969 79.5315 425.836 80.0032Z" fill="#B2CFEA" fill-opacity="0.8"/>
<path d="M425.541 81.1694L437.916 84.2973C438.797 84.5199 439.525 85.1389 439.886 85.9729L441.737 90.2477C442.266 91.468 441.906 92.8909 440.861 93.7135L437.201 96.595C436.487 97.1572 435.552 97.3559 434.671 97.1332L422.297 94.0053C420.43 93.5336 418.844 95.4818 419.725 97.1933C421.834 101.288 425.702 104.527 430.626 105.772C439.525 108.021 447.401 102.629 449.564 94.0695C451.728 85.5096 447.36 77.0231 438.461 74.7736C433.537 73.5291 428.594 74.5409 424.794 77.1421C423.205 78.23 423.675 80.6977 425.541 81.1694Z" fill="#50AAFF" fill-opacity="0.8"/>
<path d="M510.309 102.869L446.393 89.6176L444.778 96.0087L507.314 114.72C507.453 114.762 507.594 114.8 507.735 114.836L509.867 115.375C513.527 116.3 516.999 115.05 517.623 112.582L518.364 109.648C518.988 107.181 516.527 104.431 512.868 103.506L510.735 102.966C510.594 102.931 510.452 102.899 510.309 102.869ZM514.056 110.12C513.642 111.757 511.073 112.52 508.318 111.823C505.563 111.127 503.664 109.235 504.078 107.598C504.492 105.961 507.061 105.198 509.816 105.895C512.572 106.591 514.47 108.483 514.056 110.12Z" fill="#50AAFF" fill-opacity="0.8"/>
</g>
<path d="M456.594 100.12C456.198 100.01 455.876 99.7287 455.709 99.3537C455.384 98.6269 455.019 97.4628 455.799 97.1079C456.961 96.5797 459.074 98.7453 459.074 98.7453L460.106 100.418L461.05 100.877C460.185 101.116 458.518 100.719 456.594 100.12Z" fill="#FFD1CE"/>
<path d="M495.8 98.3403H493.188C493.188 98.3403 495.307 99.6109 495.378 100.948C495.448 102.284 494.537 105.052 494.11 105.806C493.644 106.63 500.025 104.579 497.772 98.3403H495.8Z" fill="#FFD1CE"/>
<path d="M457.268 178.511H223.78V189.079H457.268V178.511Z" fill="#9BCFFF"/>
<path d="M276.615 230.353L270.716 232.099L252.963 169.84L257.621 168.461L276.615 230.353Z" fill="#062E54"/>
<path d="M273.563 214.536L264.667 217.17C263.007 217.661 262.036 219.38 262.473 221.055L276.623 275.279C277.691 279.373 281.937 281.769 285.994 280.569L290.179 279.33C294.236 278.129 296.493 273.808 295.161 269.792L277.518 216.602C276.974 214.959 275.223 214.045 273.563 214.536Z" fill="#062E54"/>
<path d="M283.866 276.098L281.618 276.763L265.037 220.744L267.285 220.079L283.866 276.098Z" fill="#062E54"/>
<path d="M287.953 274.888L285.705 275.554L269.124 219.534L271.372 218.869L287.953 274.888Z" fill="#062E54"/>
<path d="M292.04 273.678L289.792 274.344L273.211 218.325L275.459 217.659L292.04 273.678Z" fill="#062E54"/>
<path d="M250.683 148.196L247.75 149.065C246.976 149.294 246.44 149.939 246.466 150.612L246.812 159.672C246.819 159.85 246.865 160.021 246.948 160.177L252.389 170.455C252.713 171.068 253.537 171.344 254.337 171.107L257.435 170.19C258.248 169.95 258.792 169.253 258.712 168.554L257.409 157.066C257.39 156.9 257.336 156.742 257.25 156.598L252.602 148.796C252.258 148.217 251.457 147.967 250.683 148.196Z" fill="#062E54"/>
<path d="M311.782 266.189L312.703 268.965C314.284 273.727 318.169 276.723 321.38 275.657L325.198 274.39C328.409 273.324 329.73 268.599 328.149 263.836L327.227 261.061C327.167 260.877 327.102 260.695 327.033 260.514L296.161 179.414L287.844 182.176L311.61 265.634C311.664 265.82 311.721 266.005 311.782 266.189ZM315.575 264.688C314.384 261.102 315.146 257.622 317.277 256.915C319.407 256.207 322.099 258.541 323.29 262.126C324.481 265.712 323.719 269.192 321.588 269.899C319.457 270.607 316.765 268.273 315.575 264.688Z" fill="#9BCFFF"/>
<path d="M274.314 155.45L279.661 171.554C280.042 172.701 280.933 173.606 282.074 174.004L287.921 176.044C289.591 176.626 291.442 176.011 292.432 174.546L295.897 169.414C296.573 168.413 296.746 167.154 296.365 166.008L291.018 149.904C290.212 147.475 292.641 145.183 294.996 146.186C300.63 148.584 305.299 153.399 307.426 159.806C311.272 171.387 304.887 182.352 293.747 186.05C282.608 189.749 270.933 184.781 267.087 173.2C264.96 166.792 265.822 160.141 268.903 154.849C270.19 152.638 273.508 153.021 274.314 155.45Z" fill="#9BCFFF"/>
<path d="M275.832 154.946L281.179 171.05C281.56 172.197 282.451 173.102 283.592 173.5L289.439 175.54C291.108 176.122 292.96 175.508 293.949 174.042L297.415 168.91C298.091 167.909 298.264 166.65 297.883 165.504L292.536 149.4C291.73 146.971 294.159 144.679 296.514 145.682C302.147 148.08 306.817 152.895 308.944 159.302C312.789 170.883 306.404 181.848 295.265 185.547C284.126 189.245 272.45 184.277 268.605 172.696C266.478 166.288 267.34 159.637 270.42 154.346C271.708 152.134 275.025 152.517 275.832 154.946Z" fill="#2C7CC8"/>
<path d="M312.992 265.787L313.914 268.563C315.495 273.325 319.38 276.321 322.591 275.255L326.408 273.988C329.62 272.921 330.941 268.197 329.36 263.434L328.438 260.659C328.377 260.475 328.312 260.292 328.243 260.111L297.371 179.012L289.054 181.774L312.821 265.232C312.874 265.418 312.931 265.604 312.992 265.787ZM316.785 264.286C315.594 260.7 316.356 257.22 318.487 256.513C320.617 255.805 323.31 258.138 324.5 261.724C325.691 265.31 324.929 268.79 322.798 269.497C320.668 270.204 317.975 267.871 316.785 264.286Z" fill="#2C7CC8"/>
<path d="M400.098 247.699C400.337 247.224 400.111 246.55 399.517 245.76C400.655 245.806 401.432 245.588 401.691 245.07C402.477 243.501 398.248 239.793 392.246 236.787C386.244 233.782 380.742 232.617 379.956 234.185C379.718 234.661 379.944 235.335 380.538 236.125C379.4 236.078 378.623 236.296 378.363 236.815C378.125 237.291 378.351 237.964 378.944 238.754C377.807 238.708 377.03 238.926 376.77 239.445C376.532 239.921 376.758 240.594 377.351 241.384C376.214 241.338 375.437 241.556 375.177 242.074C374.83 242.768 375.464 243.881 376.798 245.166C376.482 245.643 376.169 246.185 375.858 246.806C374.412 249.697 376.203 253.737 380.303 256.221C384.404 258.705 389.738 257.909 391.453 255.168C391.874 254.497 392.206 253.883 392.466 253.316C394.825 253.849 396.504 253.773 396.912 252.959C397.15 252.483 396.925 251.809 396.331 251.019C397.469 251.066 398.246 250.847 398.505 250.329C398.743 249.853 398.518 249.18 397.924 248.389C399.061 248.436 399.839 248.218 400.098 247.699Z" fill="#062E54"/>
<path d="M381.376 248.754C379.677 247.724 378.198 246.657 377.062 245.632C376.996 245.573 376.991 245.471 377.05 245.405C377.11 245.339 377.211 245.334 377.277 245.394C379.054 246.997 381.688 248.708 384.694 250.213C387.153 251.445 389.575 252.395 391.698 252.962C391.784 252.985 391.834 253.073 391.812 253.158C391.789 253.244 391.701 253.295 391.615 253.272C389.471 252.7 387.028 251.742 384.55 250.501C383.434 249.942 382.368 249.354 381.376 248.754Z" fill="#96CAFF"/>
<path d="M383 246.139C380.792 244.801 378.944 243.398 377.792 242.158C377.732 242.093 377.736 241.992 377.801 241.931C377.866 241.871 377.967 241.874 378.028 241.94C379.669 243.706 382.757 245.816 386.287 247.584C389.78 249.333 393.294 250.538 395.689 250.809C395.777 250.819 395.841 250.899 395.831 250.987C395.821 251.075 395.741 251.139 395.653 251.129C393.223 250.854 389.668 249.636 386.144 247.871C385.043 247.32 383.986 246.736 383 246.139Z" fill="#96CAFF"/>
<path d="M384.563 243.494C382.179 242.05 380.241 240.542 379.117 239.228C379.059 239.16 379.067 239.059 379.135 239.001C379.202 238.943 379.303 238.951 379.361 239.019C380.925 240.847 384.11 243.066 387.88 244.954C391.372 246.703 394.886 247.909 397.282 248.179C397.37 248.19 397.433 248.269 397.423 248.357C397.413 248.445 397.334 248.509 397.246 248.499C394.815 248.224 391.26 247.006 387.736 245.242C386.619 244.682 385.553 244.094 384.563 243.494Z" fill="#96CAFF"/>
<path d="M386.176 240.874C384.285 239.728 382.657 238.533 381.5 237.426C381.436 237.365 381.434 237.263 381.495 237.199C381.557 237.134 381.658 237.132 381.722 237.194C383.463 238.859 386.288 240.729 389.474 242.324C392.935 244.058 396.429 245.261 398.821 245.544C398.909 245.554 398.972 245.634 398.962 245.722C398.951 245.81 398.871 245.873 398.783 245.863C396.356 245.576 392.822 244.361 389.33 242.612C388.226 242.059 387.165 241.473 386.176 240.874Z" fill="#96CAFF"/>
<path d="M383.577 219.543C384.373 216.66 384.587 213.644 384.211 210.677C383.406 204.32 383.138 192.221 389.674 179.89C399.181 161.953 419.812 162.589 433.127 172.266C446.441 181.943 453.955 200.775 442.67 215.983C435.726 225.34 425.612 229.502 418.859 231.319C414.57 232.473 410.66 234.699 407.429 237.746C403.474 241.474 397.138 245.268 389.912 241.356C380.563 236.294 381.92 225.542 383.577 219.543Z" fill="#0055A5"/>
<path d="M394.327 239.305L418.577 210.354C419.078 209.756 419.671 209.509 419.902 209.804C420.132 210.098 419.913 210.822 419.412 211.42C419.398 211.435 419.382 211.455 419.368 211.471L394.615 239.712C394.428 239.924 394.217 240.001 394.142 239.884C394.069 239.77 394.152 239.514 394.327 239.305Z" fill="#ECF2F9"/>
<path d="M389.078 236.471L403.512 201.572C403.81 200.851 403.754 200.212 403.386 200.144C403.019 200.076 402.479 200.605 402.181 201.326C402.173 201.345 402.163 201.369 402.156 201.388L388.584 236.404C388.482 236.668 388.512 236.891 388.651 236.903C388.785 236.915 388.973 236.723 389.078 236.471Z" fill="#ECF2F9"/>
<path opacity="0.83" d="M420.203 207.591C420.2 207.315 419.957 207.066 419.66 207.034L416.153 206.655L416.842 203.377C416.877 203.205 416.837 203.01 416.712 202.841C416.476 202.521 416.03 202.409 415.715 202.591L415.705 202.597L410.975 205.333L412.423 198.235L412.426 198.224C412.461 198.05 412.431 197.857 412.326 197.676C412.092 197.273 411.575 197.085 411.171 197.254L405.407 199.677C405.172 199.776 405.072 200.041 405.187 200.289C405.31 200.555 405.629 200.704 405.9 200.622L410.536 199.212L409.665 206.271L409.664 206.276C409.65 206.389 409.678 206.512 409.753 206.624C409.92 206.875 410.258 206.977 410.507 206.85L415.248 204.449L414.971 206.949L414.968 206.971C414.967 206.989 414.966 207.007 414.966 207.026C414.969 207.302 415.212 207.551 415.508 207.583L419.671 208.033C419.968 208.065 420.206 207.867 420.203 207.591Z" fill="white"/>
<path opacity="0.75" d="M421.837 227.041C421.681 227.041 421.533 226.948 421.471 226.794C421.388 226.592 421.485 226.361 421.687 226.278C423.216 225.654 424.699 224.949 426.095 224.183C426.286 224.078 426.527 224.148 426.632 224.339C426.737 224.531 426.667 224.771 426.476 224.877C425.054 225.658 423.544 226.376 421.987 227.011C421.938 227.031 421.887 227.041 421.837 227.041Z" fill="white"/>
<path opacity="0.75" d="M430.074 222.557C429.95 222.557 429.828 222.499 429.751 222.39C429.624 222.212 429.666 221.965 429.845 221.839C442.374 212.961 444.008 200.068 444.023 199.939C444.048 199.722 444.245 199.565 444.461 199.591C444.678 199.616 444.834 199.813 444.809 200.03C444.794 200.162 443.131 213.395 430.302 222.485C430.233 222.534 430.153 222.557 430.074 222.557Z" fill="white"/>
<g filter="url(#filter2_b_62_288)">
<path d="M459.821 242.718H235.061V342.486H459.821V242.718Z" fill="#9BCFFF" fill-opacity="0.8"/>
</g>
<g filter="url(#filter3_b_62_288)">
<path d="M236.932 357.772H221.27C217.954 357.772 215.266 355.084 215.266 351.768V174.223C215.266 170.907 217.954 168.22 221.27 168.22H236.932C240.248 168.22 242.936 170.907 242.936 174.223V351.768C242.936 355.084 240.248 357.772 236.932 357.772Z" fill="#9BCFFF" fill-opacity="0.8"/>
</g>
<path d="M470.108 357.902H454.945C451.491 357.902 448.692 355.102 448.692 351.649V174.603C448.692 171.15 451.491 168.35 454.945 168.35H470.108C473.562 168.35 476.361 171.15 476.361 174.603V351.649C476.361 355.102 473.562 357.902 470.108 357.902Z" fill="#9BCFFF" fill-opacity="0.8"/>
<path d="M483.671 361.909H210.583V337.742C210.583 333.004 214.424 329.163 219.162 329.163H475.194C479.876 329.163 483.671 332.959 483.671 337.64L483.671 361.909Z" fill="#9BCFFF" fill-opacity="0.8"/>
<path d="M264.054 248.187L252.939 286.862L253.01 286.907C256.716 289.257 261.645 287.75 263.404 283.729L272.499 262.937L275.374 307.872C275.491 309.708 276.773 311.262 278.553 311.727C280.369 312.2 282.166 310.898 282.281 309.025L284.219 277.425H285.428C286.899 277.425 288.087 278.625 288.073 280.096L287.725 316.347C287.709 318.093 289.119 319.517 290.865 319.517C292.681 319.517 294.181 318.098 294.281 316.284L296.45 277.163L298.7 277.776C299.616 278.026 300.259 278.847 300.285 279.796L301.122 311.641C301.163 313.207 302.316 314.521 303.864 314.765L303.99 314.785C305.795 315.069 307.437 313.701 307.485 311.875L308.431 275.393C309.745 275.144 310.988 276.083 311.105 277.416L313.264 301.835C313.429 303.7 314.991 305.13 316.863 305.13C318.2 305.13 319.262 304.003 319.183 302.668L315.691 243.728C315.596 242.14 314.464 240.803 312.913 240.451C299.222 237.339 287.996 238.106 272.447 240.707C268.441 241.376 265.175 244.285 264.054 248.187Z" fill="#0055A5"/>
<defs>
<filter id="filter0_b_62_288" x="69.4535" y="223.943" width="78.4299" height="165.341" filterUnits="userSpaceOnUse" color-interpolation-filters="sRGB">
<feFlood flood-opacity="0" result="BackgroundImageFix"/>
<feGaussianBlur in="BackgroundImageFix" stdDeviation="6"/>
<feComposite in2="SourceAlpha" operator="in" result="effect1_backgroundBlur_62_288"/>
<feBlend mode="normal" in="SourceGraphic" in2="effect1_backgroundBlur_62_288" result="shape"/>
</filter>
<filter id="filter1_b_62_288" x="407.475" y="61.0777" width="123.221" height="66.6022" filterUnits="userSpaceOnUse" color-interpolation-filters="sRGB">
<feFlood flood-opacity="0" result="BackgroundImageFix"/>
<feGaussianBlur in="BackgroundImageFix" stdDeviation="6"/>
<feComposite in2="SourceAlpha" operator="in" result="effect1_backgroundBlur_62_288"/>
<feBlend mode="normal" in="SourceGraphic" in2="effect1_backgroundBlur_62_288" result="shape"/>
</filter>
<filter id="filter2_b_62_288" x="223.061" y="230.718" width="248.76" height="123.768" filterUnits="userSpaceOnUse" color-interpolation-filters="sRGB">
<feFlood flood-opacity="0" result="BackgroundImageFix"/>
<feGaussianBlur in="BackgroundImageFix" stdDeviation="6"/>
<feComposite in2="SourceAlpha" operator="in" result="effect1_backgroundBlur_62_288"/>
<feBlend mode="normal" in="SourceGraphic" in2="effect1_backgroundBlur_62_288" result="shape"/>
</filter>
<filter id="filter3_b_62_288" x="203.266" y="156.22" width="51.6697" height="213.552" filterUnits="userSpaceOnUse" color-interpolation-filters="sRGB">
<feFlood flood-opacity="0" result="BackgroundImageFix"/>
<feGaussianBlur in="BackgroundImageFix" stdDeviation="6"/>
<feComposite in2="SourceAlpha" operator="in" result="effect1_backgroundBlur_62_288"/>
<feBlend mode="normal" in="SourceGraphic" in2="effect1_backgroundBlur_62_288" result="shape"/>
</filter>
</defs>
</svg>
