<svg width="498" height="507" viewBox="0 0 498 507" fill="none" xmlns="http://www.w3.org/2000/svg">
<path d="M145.843 87.2835C145.869 85.1293 148.772 84.4402 149.755 86.3572C159.259 104.891 185.701 152.708 215.935 174.794C265.164 210.754 306.511 276.981 288.252 319.337C288.252 319.337 143.025 321.998 145.843 87.2835Z" fill="#01417C"/>
<path opacity="0.43" d="M155.414 114.539C155.594 115.171 155.793 115.678 155.983 116.234L156.579 117.858L157.805 121.09C158.637 123.238 159.502 125.372 160.366 127.507C162.111 131.77 163.909 136.011 165.745 140.235C169.434 148.677 173.35 157.018 177.392 165.298C181.422 173.585 185.683 181.759 190.117 189.839C194.556 197.915 199.113 205.931 203.93 213.793C213.532 229.533 223.999 244.766 235.501 259.198C241.326 266.352 247.342 273.358 253.751 279.999C260.205 286.592 266.943 292.914 274.112 298.717C274.268 298.843 274.497 298.819 274.623 298.663C274.746 298.511 274.726 298.29 274.58 298.162L274.577 298.158C267.664 292.104 261.089 285.69 254.842 278.966C248.576 272.259 242.706 265.194 237.028 257.986C231.353 250.774 225.969 243.333 220.757 235.778C215.547 228.217 210.652 220.445 205.802 212.648C196.166 197.008 187.37 180.859 179.025 164.484C174.87 156.287 170.879 148.006 167.036 139.655C165.108 135.483 163.219 131.293 161.381 127.079L158.675 120.739L157.354 117.556L156.713 115.959C156.511 115.433 156.285 114.87 156.128 114.403L156.102 114.325C156.038 114.137 155.834 114.035 155.646 114.099C155.463 114.16 155.362 114.355 155.414 114.539Z" fill="white"/>
<path d="M217.894 21.142C218.505 19.1736 221.355 19.3334 221.734 21.3596C225.393 40.9484 236.597 92.0131 258.298 120.515C293.634 166.922 313.484 238.935 285.185 272.796C285.185 272.796 151.279 235.619 217.894 21.142Z" fill="#4E94D5"/>
<path opacity="0.43" d="M219.229 48.7467C219.222 49.3769 219.266 49.896 219.288 50.457L219.391 52.1091L219.633 55.4074C219.809 57.6046 220.019 59.798 220.23 61.9915C220.666 66.3768 221.156 70.7565 221.687 75.1317C222.765 83.88 224.081 92.5977 225.527 101.294C226.961 109.993 228.639 118.652 230.499 127.272C232.368 135.889 234.359 144.484 236.631 153.008C241.143 170.063 246.588 186.888 253.199 203.261C256.591 211.411 260.198 219.476 264.265 227.315C268.388 235.121 272.844 242.757 277.838 250.032C277.949 250.193 278.169 250.234 278.33 250.123C278.487 250.015 278.53 249.803 278.43 249.644L278.427 249.64C273.742 242.2 269.464 234.524 265.572 226.653C261.656 218.793 258.202 210.712 254.963 202.554C251.727 194.391 248.82 186.1 246.102 177.749C243.387 169.395 241.019 160.932 238.698 152.459C234.127 135.488 230.467 118.279 227.278 100.988C225.703 92.3375 224.302 83.6542 223.054 74.9485C222.423 70.5966 221.832 66.2386 221.296 61.8737L220.542 55.3213L220.199 52.0427L220.045 50.4032C220.004 49.8658 219.95 49.2877 219.933 48.8172L219.93 48.7378C219.923 48.5443 219.761 48.3929 219.567 48.3999C219.38 48.407 219.232 48.5609 219.229 48.7467Z" fill="white"/>
<path d="M414.775 226.832C456.534 185.073 456.534 117.369 414.775 75.6106C373.017 33.8521 305.313 33.8521 263.554 75.6107C221.796 117.369 221.796 185.073 263.554 226.832C305.313 268.59 373.017 268.59 414.775 226.832Z" fill="white"/>
<path d="M339.169 242.481C389.572 242.481 430.431 201.622 430.431 151.22C430.431 100.818 389.572 59.9587 339.169 59.9587C288.767 59.9587 247.908 100.818 247.908 151.22C247.908 201.622 288.767 242.481 339.169 242.481Z" fill="#0055A5"/>
<path d="M339.169 247.052C286.328 247.052 243.337 204.062 243.337 151.22C243.337 98.3773 286.328 55.3875 339.169 55.3875C392.011 55.3875 435.001 98.3773 435.001 151.22C435.001 204.062 392.011 247.052 339.169 247.052ZM339.169 59.9586C288.848 59.9586 247.909 100.898 247.909 151.22C247.909 201.542 288.848 242.481 339.169 242.481C389.491 242.481 430.43 201.542 430.43 151.22C430.43 100.898 389.491 59.9586 339.169 59.9586Z" fill="white"/>
<path d="M339.17 206.857C369.897 206.857 394.807 181.947 394.807 151.22C394.807 120.492 369.897 95.5825 339.17 95.5825C308.442 95.5825 283.532 120.492 283.532 151.22C283.532 181.947 308.442 206.857 339.17 206.857Z" fill="#0055A5"/>
<path d="M339.169 211.428C305.97 211.428 278.961 184.419 278.961 151.22C278.961 118.021 305.971 91.0122 339.169 91.0122C372.368 91.0122 399.377 118.021 399.377 151.22C399.377 184.419 372.368 211.428 339.169 211.428ZM339.169 100.154C311.011 100.154 288.103 123.062 288.103 151.22C288.103 179.378 311.011 202.287 339.169 202.287C367.327 202.287 390.236 179.378 390.236 151.22C390.236 123.062 367.327 100.154 339.169 100.154Z" fill="white"/>
<path d="M339.169 172.775C351.074 172.775 360.725 163.124 360.725 151.22C360.725 139.315 351.074 129.664 339.169 129.664C327.265 129.664 317.614 139.315 317.614 151.22C317.614 163.124 327.265 172.775 339.169 172.775Z" fill="#0055A5"/>
<path d="M339.169 177.346C324.763 177.346 313.043 165.626 313.043 151.219C313.043 136.813 324.763 125.093 339.169 125.093C353.575 125.093 365.296 136.813 365.296 151.219C365.296 165.626 353.575 177.346 339.169 177.346ZM339.169 134.235C329.804 134.235 322.185 141.854 322.185 151.219C322.185 160.585 329.804 168.204 339.169 168.204C348.534 168.204 356.154 160.585 356.154 151.219C356.154 141.854 348.534 134.235 339.169 134.235Z" fill="white"/>
<path d="M468.8 21.2527L471.682 24.1346L362.552 133.265L359.67 130.383L468.8 21.2527Z" fill="#002649"/>
<path d="M361.711 123.429C363.364 121.776 371.159 129.571 369.505 131.224L340.596 153.951C339.528 154.791 338.144 153.407 338.984 152.339L361.711 123.429Z" fill="#002649"/>
<path d="M471.62 24.1968L486.302 25.6559L466.147 45.8107C459.543 52.4143 450.326 55.7076 441.033 54.7839L471.62 24.1968Z" fill="#2C7CC8"/>
<path d="M468.738 21.315L467.279 6.63354L447.124 26.7884C440.52 33.3919 437.227 42.6093 438.151 51.9023L468.738 21.315Z" fill="#2C7CC8"/>
<path d="M494.843 505.562H286.633V214.994C286.633 210.198 290.521 206.309 295.318 206.309H489.315C494.112 206.309 498 210.198 498 214.994V502.405C498 504.149 496.587 505.562 494.843 505.562Z" fill="#2C7CC8"/>
<path d="M378.665 506.403H194.45V275.551C194.45 270.754 198.338 266.865 203.135 266.865H369.98C374.777 266.865 378.665 270.754 378.665 275.551V506.403Z" fill="#549DE2"/>
<path d="M250.142 505.563H94.5653C92.8217 505.563 91.4082 504.149 91.4082 502.406V368.465C91.4082 363.669 95.2966 359.78 100.093 359.78H241.457C246.254 359.78 250.142 363.669 250.142 368.465V505.563Z" fill="#2C7CC8"/>
<path d="M158.734 505.562H3.15711C1.41345 505.562 0 504.149 0 502.405V425.355C0 420.559 3.88838 416.67 8.6851 416.67H150.049C154.846 416.67 158.734 420.559 158.734 425.355V505.562Z" fill="#549DE2"/>
<path d="M432.212 197.693H426.201L416.752 169.898L443.018 168.302L432.212 197.693Z" fill="url(#paint0_linear_62_877)"/>
<path d="M400.764 118.256C400.734 120.602 400.734 166.536 424.052 173.995C447.37 181.454 457.902 142.59 457.066 114.911L400.764 118.256Z" fill="#6FB9FF"/>
<path d="M447.846 201.91H410.568V206.436H447.846V201.91Z" fill="url(#paint1_linear_62_877)"/>
<path d="M447.846 201.91H410.568L420.002 196.849H438.412L447.846 201.91Z" fill="#6FB9FF"/>
<path d="M398.062 111.739C396.015 111.863 394.34 113.379 394.34 115.106V118.639C394.34 120.367 396.016 121.69 398.064 121.58L461.969 118.141C464.017 118.031 465.692 116.528 465.692 114.8V110.765C465.692 109.037 464.018 107.726 461.971 107.85L398.062 111.739Z" fill="#6FB9FF"/>
<path d="M440.565 177.646C439.075 177.646 437.79 176.705 437.617 175.429C437.431 174.057 438.601 172.818 440.229 172.661C440.54 172.63 461.985 170.365 464.018 158.628C464.361 156.649 464.323 154.064 462.194 152.985C460.438 152.094 457.562 152.377 455.506 153.643C454.337 154.363 453.058 155.624 453.602 157.543C453.983 158.886 452.998 160.235 451.402 160.555C449.807 160.876 448.205 160.047 447.824 158.704C446.838 155.225 448.398 151.824 451.999 149.607C456 147.143 461.452 146.771 465.259 148.701C467.485 149.829 471.046 152.712 469.896 159.349C468.759 165.912 463.279 171.169 454.049 174.552C447.421 176.982 441.169 177.604 440.906 177.629C440.791 177.64 440.677 177.646 440.565 177.646Z" fill="#6FB9FF"/>
<path d="M418.323 177.646C419.812 177.646 421.097 176.705 421.27 175.429C421.456 174.057 420.286 172.818 418.658 172.661C418.348 172.63 396.903 170.365 394.869 158.628C394.527 156.649 394.565 154.064 396.693 152.985C398.449 152.094 401.325 152.377 403.381 153.643C404.55 154.363 405.829 155.624 405.285 157.543C404.904 158.886 405.889 160.235 407.485 160.555C409.08 160.876 410.683 160.047 411.063 158.704C412.05 155.225 410.489 151.824 406.888 149.607C402.888 147.143 397.435 146.771 393.628 148.701C391.403 149.829 387.841 152.712 388.991 159.349C390.128 165.912 395.608 171.169 404.838 174.552C411.467 176.982 417.719 177.604 417.981 177.629C418.096 177.64 418.21 177.646 418.323 177.646Z" fill="#6FB9FF"/>
<path opacity="0.63" d="M444.417 114.648C444.161 114.648 443.947 114.448 443.933 114.189C443.918 113.921 444.124 113.692 444.392 113.678L450.099 113.371C450.367 113.36 450.595 113.562 450.61 113.83C450.624 114.097 450.419 114.326 450.151 114.341L444.444 114.647C444.435 114.648 444.426 114.648 444.417 114.648Z" fill="white"/>
<path opacity="0.63" d="M400.762 116.997C400.505 116.997 400.291 116.796 400.277 116.537C400.263 116.27 400.468 116.041 400.736 116.026L434.831 114.192C435.097 114.176 435.327 114.383 435.342 114.651C435.356 114.919 435.151 115.147 434.883 115.162L400.788 116.996C400.779 116.997 400.77 116.997 400.762 116.997Z" fill="white"/>
<path opacity="0.63" d="M427.162 168.788C427.143 168.788 427.124 168.787 427.106 168.785C420.932 168.075 415.996 163.047 412.436 153.842C409.496 146.241 408.109 137.345 407.462 131.221C407.434 130.954 407.628 130.715 407.894 130.687C408.162 130.662 408.4 130.852 408.428 131.119C409.538 141.632 413.589 166.252 427.216 167.82C427.483 167.851 427.674 168.091 427.644 168.358C427.615 168.605 427.405 168.788 427.162 168.788Z" fill="white"/>
<path opacity="0.63" d="M407.533 126.853C407.279 126.853 407.066 126.655 407.049 126.399C406.958 124.997 406.933 124.191 406.932 124.157C406.924 123.889 407.135 123.665 407.403 123.657C407.691 123.639 407.895 123.86 407.903 124.128C407.903 124.136 407.928 124.953 408.018 126.335C408.036 126.603 407.833 126.834 407.565 126.852C407.554 126.852 407.544 126.853 407.533 126.853Z" fill="white"/>
<path d="M147.276 241.726L134.911 260.749C140.663 271.955 147.052 278.141 153.444 281.082C154.585 274.1 158.663 268.305 161.657 264.863C150.254 258.377 147.276 241.726 147.276 241.726Z" fill="#50A0EC"/>
<path d="M189.759 261.448C177.1 268.941 168.052 268.501 161.656 264.863C158.662 268.305 154.585 274.1 153.444 281.082C173.763 290.431 194.111 266.9 194.111 266.9L189.759 261.448Z" fill="#FFD2BE"/>
<path d="M190.448 264.706C190.448 264.706 187.031 258.748 191.946 254.173C191.946 254.173 193.53 252.365 195.27 255.021C195.27 255.021 200.557 250.221 202.003 252.155C203.449 254.088 207.282 258.876 203.539 264.336C199.753 269.859 192.118 267.398 190.448 264.706Z" fill="#FFD2BE"/>
<path d="M195.645 261.39C195.14 261.39 194.599 261.296 194.121 261.013C193.654 260.737 193.067 260.16 192.916 258.981C192.873 258.642 193.113 258.332 193.452 258.289C193.788 258.248 194.1 258.485 194.143 258.824C194.214 259.38 194.412 259.747 194.749 259.947C195.218 260.227 195.915 260.17 196.433 260.058L195.235 256.26C195.132 255.934 195.313 255.587 195.639 255.484C195.964 255.381 196.312 255.562 196.415 255.888L197.802 260.288C197.9 260.598 197.741 260.931 197.438 261.05C197.31 261.1 196.533 261.39 195.645 261.39Z" fill="#F79E6D"/>
<path d="M10.5859 389.2C9.48551 389.863 8.92326 391.258 9.18564 392.624C10.2177 398.003 13.6102 412.21 21.8511 420.621C22.3953 421.176 23.187 421.127 23.6656 420.626C21.5788 418.452 18.9915 414.736 15.9668 408.426C11.3182 398.726 10.4574 392.744 10.5859 389.2Z" fill="#0055A5"/>
<path d="M21.227 389C21.227 389 15.9136 386.109 10.623 389.175C10.6098 389.182 10.5989 389.193 10.5861 389.201C10.4575 392.744 11.3184 398.726 15.967 408.426C18.9915 414.737 21.5789 418.453 23.6657 420.627C23.8171 420.468 23.939 420.267 24.0095 420.022C25.5572 414.645 28.8257 399.703 21.227 389Z" fill="#0055A5"/>
<path d="M28.9013 389.334L24.0862 393.954C23.2344 394.771 21.9284 394.903 20.9451 394.25C20.0873 393.681 19.1326 392.747 18.497 391.234C18.1156 390.326 18.2987 389.275 18.9612 388.546L23.7683 383.258C24.9156 381.996 26.9568 382.205 27.825 383.673L29.3281 386.216C29.9269 387.228 29.7502 388.52 28.9013 389.334Z" fill="#FFD2BE"/>
<path d="M184.529 366.161C185.649 366.79 187.139 366.589 188.198 365.686C192.363 362.13 203.037 352.159 206.276 340.838C206.49 340.091 206.056 339.427 205.384 339.258C204.525 342.147 202.574 346.233 198.583 351.981C192.448 360.816 187.673 364.521 184.529 366.161Z" fill="#0055A5"/>
<path d="M179.095 357.009C179.095 357.009 179.209 363.057 184.488 366.141C184.501 366.149 184.516 366.153 184.529 366.161C187.673 364.521 192.448 360.816 198.583 351.981C202.574 346.233 204.525 342.147 205.384 339.258C205.172 339.205 204.936 339.198 204.689 339.258C199.249 340.57 184.644 345.114 179.095 357.009Z" fill="#0055A5"/>
<path d="M178.723 346.996L183.754 351.379C184.644 352.154 184.892 353.443 184.329 354.481C183.839 355.386 182.994 356.42 181.544 357.188C180.674 357.65 179.611 357.561 178.826 356.966L173.13 352.651C171.77 351.621 171.796 349.569 173.18 348.573L175.578 346.849C176.533 346.162 177.836 346.223 178.723 346.996Z" fill="#FFD2BE"/>
<path d="M77.7746 302.633C77.7746 302.633 67.957 336.079 61.6098 350.78C61.6098 350.78 50.5142 352.472 43.6466 356.485C36.7793 360.498 21.9868 382.737 21.9868 382.737C21.9868 382.737 25.8498 390.071 30.5109 391.196L72.6206 362.019L106.228 322.936L104.633 304.808L77.7746 302.633Z" fill="#0055A5"/>
<path d="M78.3795 299.905L75.5067 309.064C75.5067 309.064 78.1344 333.076 108.406 329.027C138.678 324.978 142.483 320.036 142.483 320.036C142.483 320.036 139.855 335.372 172.956 353.811C172.956 353.811 177.987 350.012 179.095 345.699L155.898 307.467C152.672 302.452 149.68 301.131 143.788 302.052C130.761 304.09 106.368 306.745 102.676 306.115L78.3795 299.905Z" fill="#0055A5"/>
<path d="M102.022 231.798C93.2004 232.247 79.2557 236.441 70.2479 244.733C73.0166 247.79 77.2768 252.759 80.4523 257.668C83.2898 255.004 87.3647 252.785 93.1018 251.364C88.1429 269.898 82.2815 287.555 75.1387 303.969C74.6918 304.996 75.2008 306.184 76.2587 306.553C81.7858 308.479 98.0853 313.066 111.159 305.679L140.142 264.177C143.259 259.714 145.308 254.594 146.131 249.212L147.276 241.726C147.276 241.726 121.245 230.821 102.022 231.798Z" fill="#50A0EC"/>
<path d="M86.2152 294.601C84.9554 291.819 80.643 289.22 78.5846 288.104C76.794 284.413 69.6466 267.812 80.4523 257.667C77.2768 252.759 73.0166 247.789 70.2479 244.733C59.8549 254.301 56.0502 269.331 74.2755 290.376C73.2808 295.56 76.5266 301.595 78.2817 302.441C79.0905 302.831 87.8894 298.297 86.2152 294.601Z" fill="#FFD2BE"/>
<path d="M121.6 220.775L114.028 235.597C113.566 236.501 113.703 237.593 114.382 238.349C116.215 240.391 120.546 243.708 128.078 241.331C128.909 241.069 129.507 240.339 129.633 239.477L131.605 226.017L121.6 220.775Z" fill="#FFD2BE"/>
<path d="M134.224 203.565C134.224 203.565 138.665 213.767 138.963 219.122C139.262 224.477 140.416 227.951 134.224 229.03C128.032 230.108 122.816 227.024 119.99 221.69C119.99 221.69 115.563 213.47 116.556 210.104C117.549 206.738 134.224 203.565 134.224 203.565Z" fill="#FFD2BE"/>
<path d="M122.106 217.855L122.459 217.699C122.907 217.502 123.099 216.967 122.874 216.532C122.001 214.845 120.299 210.979 122.498 210.077C125.331 208.915 136.556 206.626 138.978 202.643C141.306 198.815 139.243 193.874 136.144 192.468C135.937 192.374 135.692 192.449 135.586 192.65L135.327 193.139C135.151 193.474 134.656 193.423 134.551 193.059C134.45 192.71 133.986 192.643 133.794 192.951C133.049 194.142 131.039 196.074 125.665 197.066C118.026 198.476 112.976 201.567 112.85 206.845C112.842 207.181 112.486 207.367 112.199 207.193C111.635 206.849 110.733 206.687 109.526 207.702C107.429 209.466 108.287 214.041 112.886 217.805C113.104 217.984 113.102 218.325 112.866 218.479C112.032 219.022 110.789 220.313 114.01 222.034C117.341 223.815 119.828 223.669 120.786 223.511C121.024 223.471 121.178 223.241 121.126 223.005L120.103 218.366C120.046 218.103 120.245 217.854 120.514 217.854L122.106 217.855Z" fill="#3D3D3D"/>
<path d="M122.299 218.834C122.299 218.834 120.604 212.317 117.682 214.144C114.76 215.971 119.199 221.446 121.548 221.69L122.299 218.834Z" fill="#FFD2BE"/>
<defs>
<linearGradient id="paint0_linear_62_877" x1="433.402" y1="101.583" x2="431.406" y2="139.892" gradientUnits="userSpaceOnUse">
<stop stop-color="#2C7CC8"/>
<stop offset="1" stop-color="#439AED"/>
</linearGradient>
<linearGradient id="paint1_linear_62_877" x1="433.847" y1="129.926" x2="431.453" y2="168.235" gradientUnits="userSpaceOnUse">
<stop stop-color="#2C7CC8"/>
<stop offset="1" stop-color="#439AED"/>
</linearGradient>
</defs>
</svg>
