<svg width="415" height="412" viewBox="0 0 415 412" fill="none" xmlns="http://www.w3.org/2000/svg">
<path d="M242.311 206.515C252.285 197.14 265.441 181.919 271.377 160.411C279.163 132.204 267.689 117.968 268.926 70.2265C269.708 40.04 270.558 18.9814 285.773 7.7006C297.696 -1.13953 317.014 -2.9168 328.748 5.25086C338.505 12.0419 344.162 26.5035 345.895 36.8288C347.307 45.244 346.188 51.3565 351.048 55.7847C356.015 60.31 361.368 57.7386 366.011 61.0893C375.428 67.8845 370.006 90.4354 369.13 94.08C359.383 134.623 322.043 162.002 305.611 173.748C292.026 183.461 271.006 196.407 242.311 206.515Z" fill="url(#paint0_linear_62_777)"/>
<mask id="mask0_62_777" style="mask-type:luminance" maskUnits="userSpaceOnUse" x="242" y="0" width="130" height="207">
<path d="M242.311 206.515C252.285 197.14 265.441 181.919 271.377 160.411C279.163 132.204 267.689 117.968 268.926 70.2265C269.708 40.04 270.558 18.9814 285.773 7.7006C297.696 -1.13953 317.014 -2.9168 328.748 5.25086C338.505 12.0419 344.162 26.5035 345.895 36.8288C347.307 45.244 346.188 51.3565 351.048 55.7847C356.015 60.31 361.368 57.7386 366.011 61.0893C375.428 67.8845 370.006 90.4354 369.13 94.08C359.383 134.623 322.043 162.002 305.611 173.748C292.026 183.461 271.006 196.407 242.311 206.515Z" fill="white"/>
</mask>
<g mask="url(#mask0_62_777)">
<g opacity="0.5">
<path d="M230.953 214.127L230.572 213.131C247.892 206.531 262.791 198.668 274.854 189.763C292.631 176.64 303.689 161.599 307.721 145.058C310.879 132.102 309.738 118.673 308.157 100.086C306.895 85.2405 304.662 74.8346 302.69 65.6539C300.111 53.6412 298.074 44.1529 299.47 30.3749C300.886 16.396 305.48 2.49618 313.127 -10.939L314.054 -10.4115C306.481 2.89335 301.932 16.6521 300.532 30.4822C299.153 44.0935 301.174 53.5094 303.734 65.4302C305.711 74.642 307.953 85.0829 309.22 99.9908C310.75 117.98 311.958 132.185 308.758 145.311C304.665 162.1 293.471 177.345 275.488 190.621C263.347 199.584 248.364 207.492 230.953 214.127Z" fill="white"/>
<path d="M307.831 89.7536L307.279 89.5133C307.18 89.4703 297.263 85.0938 287.352 74.9246C278.205 65.539 267.172 49.152 266.557 24.3831L267.624 24.3565C268.23 48.7596 279.086 64.9032 288.085 74.1487C296.53 82.8235 304.965 87.221 307.157 88.2801C315.259 61.4462 329.658 44.6036 340.351 35.178C352.035 24.8788 361.963 20.9553 362.062 20.9168L362.448 21.9106C362.351 21.9484 352.565 25.822 341.018 36.0114C330.366 45.4109 315.991 62.2647 308.003 89.1761L307.831 89.7536Z" fill="white"/>
<path d="M309.986 129.942L309.767 129.623C309.67 129.481 299.883 115.268 287.281 102.941C274.764 90.6959 245.456 86.4675 245.162 86.426L245.31 85.3702C245.384 85.3806 252.859 86.4435 261.798 89.0259C270.074 91.4167 281.343 95.6395 288.027 102.179C299.649 113.548 308.889 126.507 310.424 128.699C341.125 119.162 373.825 47.2872 374.152 46.5594L375.126 46.9972C375.043 47.1807 366.713 65.5769 354.65 84.8641C338.41 110.83 323.508 125.959 310.358 129.833L309.986 129.942Z" fill="white"/>
<path d="M280.005 187.017L280.534 186.095C288.365 172.463 287.203 158.156 277.077 143.571C269.495 132.65 259.468 125.687 259.368 125.618L259.973 124.739C260.075 124.81 270.262 131.884 277.954 142.964C287.957 157.371 289.34 172.12 281.985 185.686C285.675 185.144 298.686 182.972 314.925 177.29C332.602 171.105 357.833 159.374 377.638 138.619L416.135 98.2742L416.907 99.0099L378.41 139.354C358.451 160.272 333.047 172.082 315.251 178.306C295.974 185.048 281.208 186.873 281.061 186.89L280.005 187.017Z" fill="white"/>
</g>
</g>
<path d="M199.745 228.571C226.583 239.255 262.298 249.038 300.959 247.009C310.825 246.492 371.774 243.293 374.87 217.329C375.96 208.183 368.951 203.937 370.195 191.683C371.669 177.164 382.454 173.832 394.536 159.735C401.745 151.324 422.843 126.706 411.922 104.256C405.396 90.8397 387.732 78.8039 371.612 76.4851C347.969 73.0839 332.282 91.254 306.273 122.457C283.217 150.117 282.896 158.991 265.945 178.619C253.365 193.186 233.02 212.063 199.745 228.571Z" fill="#0055A5"/>
<mask id="mask1_62_777" style="mask-type:luminance" maskUnits="userSpaceOnUse" x="199" y="76" width="216" height="172">
<path d="M199.745 228.571C226.583 239.255 262.298 249.038 300.959 247.009C310.825 246.492 371.774 243.293 374.87 217.329C375.96 208.183 368.951 203.937 370.195 191.683C371.669 177.164 382.454 173.832 394.536 159.735C401.745 151.324 422.843 126.706 411.922 104.256C405.396 90.8397 387.732 78.8039 371.612 76.4851C347.969 73.0839 332.282 91.254 306.273 122.457C283.217 150.117 282.896 158.991 265.945 178.619C253.365 193.186 233.02 212.063 199.745 228.571Z" fill="white"/>
</mask>
<g mask="url(#mask1_62_777)">
<g opacity="0.5">
<path d="M188.045 228.587C180.777 228.587 173.514 228.093 166.255 227.104C136.437 223.039 107.857 211.117 81.3063 191.669L81.9371 190.809C108.342 210.151 136.76 222.007 166.399 226.047C205.882 231.429 245.624 222.044 284.517 198.151C325.02 173.268 354.459 138.887 372.022 114.426C384.185 97.4869 391.399 76.2914 393.462 51.4284L394.525 51.5164C392.446 76.5746 385.167 97.9496 372.889 115.048C355.269 139.588 325.73 174.084 285.076 199.059C253.112 218.696 220.563 228.587 188.045 228.587Z" fill="white"/>
<path d="M332.607 161.334L332.461 160.878C332.422 160.755 328.547 148.412 328.057 131.683C327.603 116.228 330.024 93.7489 344.128 74.4232L344.99 75.0516C331.071 94.1238 328.678 116.341 329.122 131.62C329.552 146.404 332.645 157.723 333.34 160.096C404.989 145.276 421.009 102.593 424.216 89.8404C424.313 89.4516 424.349 89.3122 424.387 89.218L425.379 89.6106C425.355 89.6793 425.315 89.8454 425.251 90.1003C421.998 103.033 405.739 146.385 333.076 161.238L332.607 161.334Z" fill="white"/>
<path d="M347.981 217.231C332.123 217.231 310.739 213.199 285.209 198.65L284.961 198.509L284.941 198.224C284.913 197.836 282.433 158.859 303.329 115.331L324.406 71.4278L325.367 71.8891L304.291 115.793C284.459 157.104 285.804 194.266 285.989 197.867C304.174 208.19 331.792 219.519 360.574 215.261C377.858 212.705 387.488 205.622 387.583 205.55L388.223 206.404C388.126 206.476 378.327 213.698 360.8 216.306C357.057 216.863 352.77 217.231 347.981 217.231Z" fill="white"/>
</g>
</g>
<path d="M331.533 403.744C332.407 405.136 332.271 405.788 332.121 406.085C331.68 406.954 330.335 406.317 327.073 407.053C326.69 407.139 325.961 407.316 325.016 407.196C324.206 407.092 323.231 406.769 323.248 406.553C323.255 406.475 323.392 406.429 323.444 406.412C324.34 406.121 329.894 403.762 329.894 403.762L331.533 403.744Z" fill="url(#paint1_linear_62_777)"/>
<path d="M331.636 400.471L331.467 403.806C331.467 403.806 330.161 404.95 329.664 403.779C329.307 402.937 329.069 400.591 329.069 400.591L331.636 400.471Z" fill="#FFC444"/>
<path d="M315.154 403.835L316.933 407.469L318.912 406.938L318.08 403.489L315.154 403.835Z" fill="#FFC444"/>
<path d="M317.777 409.484C318.63 408.227 319.511 408.241 319.603 407.429C319.676 406.792 319.214 406.067 318.607 405.836C317.754 405.513 316.839 406.253 316.632 406.42C315.228 407.556 315.799 409.043 314.448 409.855C314.176 410.019 313.738 410.208 313.307 410.705C313.124 410.916 312.671 411.438 312.823 411.75C312.998 412.111 313.892 412.004 314.742 411.903C315.762 411.781 316.272 411.721 316.732 411.363C317.368 410.867 317.119 410.454 317.777 409.484Z" fill="url(#paint2_linear_62_777)"/>
<path d="M334.193 320.862C334.619 328.533 334.207 335.163 333.519 340.604C332.778 346.457 332.151 347.51 332.102 351.519C331.993 360.243 334.887 361.251 336.212 370.992C337.674 381.748 335.511 390.572 334.653 393.941C333.903 396.886 333.06 399.284 332.416 400.954C331.496 401.9 329.953 401.694 328.329 401.501C326.927 391.752 325.428 382.591 324.027 372.841C320.906 358.258 317.785 343.675 314.664 329.092C321.174 326.349 327.684 323.606 334.193 320.862Z" fill="#002343"/>
<path opacity="0.3" d="M328.329 401.501C326.927 391.751 325.428 382.591 324.027 372.841C320.906 358.258 317.785 343.675 314.664 329.092C321.174 326.349 327.684 323.606 334.193 320.862C334.221 321.37 334.236 321.861 334.258 322.36C325.546 331.285 324.244 337.891 324.701 342.286C325.255 347.616 328.396 350.02 328.467 357.809C328.518 363.378 326.934 364.491 327.349 369.486C327.883 375.917 330.945 379.305 332.599 382.91C334.197 386.394 335.082 391.443 333.17 398.888C332.902 399.662 332.646 400.357 332.416 400.954C331.496 401.899 329.953 401.694 328.329 401.501Z" fill="#311944"/>
<path d="M322.958 329.216C318.727 337.925 316.536 344.685 315.388 348.842C314.687 351.378 314.08 354.01 314.168 357.387C314.275 361.526 315.376 364.842 316.266 366.95C317.53 369.641 318.734 372.802 319.623 376.411C322.509 388.116 320.552 398.274 318.851 404.163C317.698 404.702 316.545 405.241 315.393 405.779C312.075 398.472 307.889 388.063 304.428 375.086C302.537 367.999 301.08 362.438 300.476 355.271C299.839 347.712 299.924 335.665 304.928 320.866C310.938 323.649 316.948 326.433 322.958 329.216Z" fill="#002343"/>
<path d="M314.781 264.004C307.327 265.928 301.682 267.756 299.439 271.927C297.071 276.333 301.649 279.122 303.583 288.198C306.545 302.092 298.901 308.007 302.398 321.955C303.577 326.655 305.503 330.205 306.801 332.302C309.41 334.092 313.519 336.488 318.942 337.894C326.832 339.939 330.486 338.068 340.852 337.802C357.807 337.368 360.739 342.05 368.114 338.411C375.567 334.733 380.463 326.057 378.538 322.682C377.384 320.661 374.406 322.229 369.764 320.016C363.781 317.163 364.363 312.544 359.41 309.033C352.296 303.991 346.367 310.169 340.275 305.777C334.113 301.334 332.434 289.426 334.289 282.101C335.501 277.317 335.111 272.255 335.9 267.383C335.966 266.979 335.991 266.34 335.685 265.643C334.514 262.977 329.447 262.867 325.62 262.819C319.782 262.745 315.394 263.846 314.781 264.004Z" fill="url(#paint3_linear_62_777)"/>
<path opacity="0.3" d="M366.787 333.158C364.321 331.796 365.221 327.28 361.566 325.225C358.174 323.318 355.905 326.368 351.051 325.31C344.826 323.953 344.659 318.085 338.686 316.703C334.391 315.709 333.351 318.482 327.326 319.097C321.311 319.711 313.208 317.881 307.678 311.914C305.328 309.378 303.901 306.584 303.033 303.962C301.853 309.296 300.521 314.469 302.398 321.955C303.577 326.654 305.503 330.205 306.801 332.302C309.41 334.092 313.519 336.488 318.942 337.894C326.832 339.939 330.486 338.067 340.852 337.802C357.807 337.368 360.739 342.05 368.114 338.41C372.877 336.06 376.585 331.671 378.146 327.926C371.879 333.327 368.576 334.147 366.787 333.158Z" fill="url(#paint4_linear_62_777)"/>
<path d="M313.481 251.021C313.481 251.021 311.134 254.797 310.819 257.535C310.505 260.273 313.62 260.279 313.62 260.279L313.388 262.004C313.191 263.477 312.145 264.695 310.718 265.114L309.464 265.483C309.464 265.483 317.339 267.723 321.906 264.933L320.657 264.726C318.888 264.434 317.571 262.936 317.508 261.146L317.482 260.399C317.482 260.399 319.437 251.93 313.481 251.021Z" fill="#FFC444"/>
<path d="M301.191 295.847L289.05 274.918C288.9 274.66 288.599 274.53 288.308 274.598L271.321 278.565C270.868 278.67 270.653 279.191 270.9 279.585L284.988 302.098C285.158 302.369 285.494 302.485 285.795 302.377L300.725 296.989L301.191 295.847Z" fill="url(#paint5_linear_62_777)"/>
<path d="M298.204 293.472L288.374 276.526C288.252 276.316 288.008 276.211 287.773 276.266L274.019 279.478C273.651 279.564 273.477 279.985 273.677 280.305L285.085 298.533C285.222 298.753 285.494 298.847 285.738 298.759L297.827 294.396L298.204 293.472Z" fill="#FFC444"/>
<path d="M285.473 276.72L284.692 275.361C284.584 275.172 284.365 275.076 284.152 275.124L277.077 276.714C276.749 276.787 276.587 277.159 276.758 277.45L277.626 278.928C277.737 279.117 277.959 279.211 278.172 279.159L285.16 277.45C285.481 277.371 285.638 277.007 285.473 276.72Z" fill="url(#paint6_linear_62_777)"/>
<path d="M276.206 282.548C276.218 282.546 276.228 282.544 276.239 282.541L288.694 279.604C288.848 279.568 288.944 279.413 288.908 279.26C288.871 279.105 288.711 279.012 288.563 279.047L276.107 281.984C275.953 282.02 275.858 282.175 275.894 282.329C275.928 282.472 276.064 282.565 276.206 282.548Z" fill="white"/>
<path d="M276.987 283.754C276.998 283.752 277.011 283.75 277.022 283.747L289.401 280.694C289.555 280.656 289.649 280.501 289.611 280.347C289.573 280.193 289.42 280.1 289.264 280.137L276.885 283.191C276.731 283.228 276.637 283.384 276.675 283.538C276.71 283.68 276.845 283.77 276.987 283.754Z" fill="white"/>
<path d="M283.516 285.096C283.531 285.095 283.545 285.092 283.559 285.088L290.289 283.232C290.443 283.191 290.532 283.032 290.49 282.88C290.448 282.728 290.287 282.637 290.137 282.68L283.407 284.536C283.254 284.577 283.164 284.736 283.207 284.889C283.245 285.026 283.378 285.113 283.516 285.096Z" fill="white"/>
<path d="M281.541 296.589C281.541 296.589 278.536 294.975 278.069 293.665C277.601 292.355 277.418 289.818 277.418 289.818L279.426 293.21C279.426 293.21 280.192 292.901 280.41 291.691C280.628 290.481 281.316 291.497 281.176 292.408C281.036 293.319 281.541 296.589 281.541 296.589Z" fill="#FFC444"/>
<path d="M300.642 270.462C299.255 271.519 297.187 273.335 295.479 276.096C290.622 283.95 293.621 291.464 289.261 294.688C288.014 295.61 285.747 296.489 281.38 295.441L279.855 296.467C279.855 296.467 278.932 306.695 291.149 305.798C303.366 304.901 307.851 289.138 307.851 289.138L300.642 270.462Z" fill="url(#paint7_linear_62_777)"/>
<path d="M314.47 254.997C314.885 254.99 315.262 254.489 315.534 254.664C315.82 254.846 315.736 255.607 315.443 256.125C315.202 256.55 314.84 256.775 314.641 256.878C314.93 257.34 315.291 258.053 315.4 258.961C315.642 260.97 314.48 262.496 313.98 263.401C311.721 267.479 314.356 274.339 317.511 277.925C320.074 280.839 321.429 279.826 322.919 282.166C325.821 286.721 321.099 291.202 322.36 297.157C324.278 306.212 338.146 309.79 338.721 309.931C338.948 309.987 339.1 310.022 339.337 310.076C345.57 311.495 355.018 313.645 362.087 308.925C367.376 305.393 370.131 298.817 370.144 292.865C370.148 291.299 370.069 285.35 365.565 280.199C364.85 279.382 360.616 274.551 354.491 274.089C351.247 273.844 350.517 274.943 348.081 274.072C344.747 272.878 342.859 269.651 341.687 267.65C339.533 263.967 340.554 263.28 338.951 261.433C335.809 257.814 331.68 260.217 328.283 256.982C324.934 253.793 327.339 249.929 324.087 247.145C320.732 244.274 313.917 244.745 312.268 247.789C310.851 250.405 313.198 255.017 314.47 254.997Z" fill="url(#paint8_linear_62_777)"/>
<path d="M178.525 402.185C177.64 402.185 176.744 402.171 175.836 402.143C155.721 401.523 139.348 390.913 129.732 372.267C129.311 371.452 128.908 370.628 128.522 369.798C118.778 372.005 108.211 370.823 97.6984 366.131C76.6954 356.757 62.4292 336.332 56.4424 307.061C52.036 285.519 53.6036 266.893 53.6726 266.111L64.3012 267.045C64.2862 267.22 62.8026 285.115 66.9462 305.17C72.3163 331.162 84.1268 348.396 102.049 356.396C110.892 360.342 118.495 360.851 124.764 359.691C120.504 344.77 121.472 329.273 127.894 319.651C132.204 313.192 138.677 309.97 146.11 310.576C154.083 311.227 160.003 315.541 162.353 322.413C166.02 333.137 160.373 348.502 148.926 358.948C145.706 361.886 142.244 364.288 138.597 366.147C138.797 366.559 139.004 366.972 139.216 367.382C143.71 376.097 154.487 390.817 176.165 391.486C190.748 391.934 201.15 388.268 207.085 380.585C218.298 366.071 211.243 341.559 211.17 341.313L221.404 338.297C221.763 339.515 230.036 368.325 215.531 387.101C207.794 397.117 195.352 402.185 178.525 402.185ZM144.363 321.167C141.232 321.167 138.742 322.613 136.771 325.567C132.701 331.666 131.44 343.582 134.821 356.054C137.666 354.476 139.977 352.675 141.731 351.074C150.866 342.739 154.256 331.709 152.257 325.861C151.64 324.057 150.242 321.612 145.242 321.204C144.944 321.179 144.651 321.167 144.363 321.167Z" fill="url(#paint9_linear_62_777)"/>
<path d="M4.60376 219.455L12.0286 262.736C12.2604 264.088 12.5966 265.399 12.9833 266.679C12.9777 266.676 12.9787 266.671 12.9787 266.671C12.9787 266.671 13.0332 266.84 13.1371 267.146C13.8964 269.529 14.9168 271.775 16.1577 273.861C21.0317 282.757 32.151 296.495 53.7345 294.422C51.7545 292.805 49.6728 291.075 47.5749 289.49C48.2695 289.416 48.9454 289.208 49.6435 289.089L60.7222 287.191C78.4618 284.152 90.2617 267.582 87.2206 249.855L79.7958 206.573L4.60376 219.455Z" fill="url(#paint10_linear_62_777)"/>
<path opacity="0.2" d="M4.60376 219.455L12.0286 262.736C12.2604 264.088 12.5966 265.399 12.9833 266.679C12.9777 266.676 12.9787 266.671 12.9787 266.671C12.9787 266.671 13.0332 266.84 13.1371 267.146C13.8964 269.529 14.9168 271.775 16.1577 273.861C21.0317 282.757 32.151 296.495 53.7345 294.422C51.7545 292.805 49.6728 291.075 47.5749 289.49C48.2695 289.416 48.9454 289.208 49.6435 289.089L60.7222 287.191C78.4618 284.152 90.2617 267.582 87.2206 249.855L79.7958 206.573L4.60376 219.455Z" fill="url(#paint11_linear_62_777)"/>
<path d="M14.1353 183.204L14.014 183.224L13.8927 183.245C11.5683 183.643 10.1994 185.815 10.5979 188.138L18.9507 236.829C19.3492 239.152 21.3938 240.919 23.7182 240.521L23.8395 240.5L23.9608 240.48C26.2852 240.081 27.7623 237.711 27.3638 235.388L19.0111 186.697C18.6125 184.374 16.4595 182.805 14.1353 183.204Z" fill="url(#paint12_linear_62_777)"/>
<path d="M59.1539 175.491L59.0326 175.512L58.9113 175.533C56.5869 175.931 54.8943 178.158 55.2928 180.481L63.6456 229.172C64.0441 231.495 66.4124 233.207 68.7368 232.808L68.8581 232.788L68.9794 232.767C71.3032 232.369 72.9829 229.963 72.5845 227.641L64.2317 178.95C63.8334 176.627 61.4775 175.093 59.1539 175.491Z" fill="url(#paint13_linear_62_777)"/>
<path opacity="0.8" d="M65.5834 224.694C65.8821 226.435 64.7118 228.089 62.9694 228.387L27.2137 234.513C25.4713 234.811 23.8167 233.642 23.518 231.901C23.2193 230.159 24.3896 228.506 26.132 228.207L61.8877 222.082C63.63 221.783 65.2847 222.953 65.5834 224.694Z" fill="url(#paint14_linear_62_777)"/>
<path opacity="0.8" d="M68.1071 239.407C68.4058 241.149 67.2354 242.802 65.4931 243.101L29.7374 249.226C27.995 249.525 26.3403 248.355 26.0417 246.614C25.743 244.873 26.9133 243.219 28.6557 242.921L64.4114 236.795C66.1537 236.497 67.8084 237.666 68.1071 239.407Z" fill="url(#paint15_linear_62_777)"/>
<path opacity="0.8" d="M70.6313 254.12C70.9299 255.862 69.7596 257.515 68.0172 257.814L32.2616 263.939C30.5192 264.238 28.8645 263.068 28.5658 261.327C28.2671 259.586 29.4375 257.932 31.1798 257.634L66.9355 251.508C68.6779 251.21 70.3326 252.379 70.6313 254.12Z" fill="url(#paint16_linear_62_777)"/>
<path d="M89.5322 208.805C89.5322 208.805 85.2434 205.172 82.0816 203.5C82.081 203.501 82.0893 203.553 82.089 203.553C81.0985 202.968 79.9134 202.767 78.6906 202.976L4.19924 215.738C1.46038 216.207 -0.396854 218.702 0.0725989 221.439L0.0902623 221.453C0.146468 221.78 0.289899 222.302 0.348408 222.302H0.34718C0.34718 222.302 0.346104 222.371 0.349022 222.378C0.552651 222.907 0.8412 223.415 1.19594 223.835C1.8638 224.745 2.97025 225.939 4.70279 226.913C4.70616 226.914 4.70816 226.924 4.71154 226.925C4.96139 227.105 5.22768 227.264 5.50701 227.395C8.20887 229.032 9.26925 230.347 11.4135 230.393C12.4178 230.415 26.8704 226.458 43.0986 222.055L83.0182 215.216C85.6745 214.761 87.4635 212.217 87.1421 209.572C88.6833 209.135 89.5322 208.805 89.5322 208.805Z" fill="url(#paint17_linear_62_777)"/>
<path d="M16.0709 183.321C16.0709 183.321 25.0014 186.667 25.624 191.162C20.0055 191.419 21.3974 218.473 21.3974 218.473L14.8054 213.814C14.8054 213.814 7.68988 182.311 16.0709 183.321Z" fill="url(#paint18_linear_62_777)"/>
<path d="M61.0891 175.608C61.0891 175.608 70.0196 178.955 70.6422 183.449C65.0236 183.707 66.4156 210.761 66.4156 210.761L59.8236 206.101C59.8236 206.101 52.7079 174.598 61.0891 175.608Z" fill="url(#paint19_linear_62_777)"/>
<path d="M33.6439 240.444C34.0421 242.765 32.4817 244.97 30.1585 245.368C27.8354 245.766 25.6291 244.207 25.2309 241.885L16.8477 193.017C16.4495 190.695 18.0099 188.49 20.333 188.092C22.6562 187.694 24.8625 189.254 25.2607 191.575L33.6439 240.444Z" fill="url(#paint20_linear_62_777)"/>
<path opacity="0.3" d="M25.7599 191.329L34.1127 240.02C34.5112 242.343 32.814 244.372 30.4898 244.77L30.5943 244.752L20.859 188.002L20.7544 188.02C23.0786 187.622 25.3614 189.006 25.7599 191.329Z" fill="url(#paint21_linear_62_777)"/>
<path d="M70.4809 183.828C70.0826 181.506 67.8764 179.947 65.5533 180.345C63.2301 180.743 61.6696 182.948 62.0679 185.269L70.4511 234.138C70.8495 236.459 73.0556 238.019 75.3788 237.621C77.7019 237.223 79.2625 235.018 78.8641 232.696L70.4809 183.828Z" fill="url(#paint22_linear_62_777)"/>
<path opacity="0.3" d="M62.0414 185.114L70.3942 233.805C70.7927 236.128 72.9411 237.498 75.2653 237.1L75.2888 237.096L65.5534 180.345L65.5299 180.349C63.2057 180.747 61.643 182.791 62.0414 185.114Z" fill="#EBEFF2"/>
<path d="M11.3794 224.244L18.7773 267.369C21.8184 285.096 38.5228 296.944 56.2623 293.905L67.3411 292.007C85.0806 288.968 97.0105 272.215 93.9694 254.487L86.5715 211.362L11.3794 224.244Z" fill="url(#paint23_linear_62_777)"/>
<path d="M91.5352 211.902C92.0047 214.638 90.1651 217.238 87.4264 217.707L12.6877 230.511C9.94896 230.98 7.348 229.142 6.87855 226.405L6.86611 226.332C6.39665 223.596 8.23624 220.996 10.9749 220.527L85.7137 207.723C88.4525 207.254 91.0533 209.092 91.5228 211.829L91.5352 211.902Z" fill="url(#paint24_linear_62_777)"/>
<path opacity="0.8" d="M72.3593 229.483C72.658 231.225 71.4876 232.878 69.7453 233.177L33.9896 239.302C32.2472 239.601 30.5925 238.431 30.2939 236.69C29.9952 234.949 31.1655 233.295 32.9079 232.997L68.6635 226.871C70.4059 226.573 72.0606 227.742 72.3593 229.483Z" fill="url(#paint25_linear_62_777)"/>
<path opacity="0.8" d="M74.883 244.197C75.1817 245.938 74.0113 247.591 72.269 247.89L36.5133 254.015C34.7709 254.314 33.1162 253.144 32.8175 251.403C32.5188 249.662 33.6892 248.008 35.4315 247.71L71.1872 241.584C72.9296 241.286 74.5843 242.455 74.883 244.197Z" fill="url(#paint26_linear_62_777)"/>
<path opacity="0.8" d="M77.4069 258.91C77.7056 260.651 76.5352 262.304 74.7929 262.603L39.0372 268.728C37.2948 269.027 35.6401 267.857 35.3415 266.116C35.0428 264.375 36.2131 262.721 37.9555 262.423L73.7112 256.297C75.4535 255.999 77.1082 257.168 77.4069 258.91Z" fill="url(#paint27_linear_62_777)"/>
<path opacity="0.8" d="M72.3107 230.395C72.1411 231.796 71.0649 232.951 69.5974 233.202L34.1023 239.283C32.3102 239.59 30.6205 238.468 30.3133 236.677C30.1598 235.781 30.3915 234.951 30.8795 234.262C31.1879 233.826 31.6056 233.482 32.0992 233.242C32.0551 233.557 32.0546 233.839 32.1102 234.164C32.4175 235.955 34.1141 237.118 35.9062 236.81L71.4013 230.729C71.7258 230.674 72.0283 230.542 72.3107 230.395Z" fill="url(#paint28_linear_62_777)"/>
<path opacity="0.8" d="M74.8344 245.108C74.6647 246.509 73.5885 247.664 72.121 247.915L36.626 253.996C34.8338 254.303 33.1437 253.178 32.8365 251.387C32.683 250.492 32.9146 249.66 33.4024 248.971C33.7108 248.535 34.1283 248.19 34.6219 247.95C34.5778 248.265 34.5777 248.55 34.6334 248.874C34.9407 250.665 36.6376 251.83 38.4298 251.523L73.925 245.442C74.2496 245.387 74.5522 245.255 74.8344 245.108Z" fill="url(#paint29_linear_62_777)"/>
<path opacity="0.8" d="M77.3586 259.821C77.1889 261.222 76.1127 262.377 74.6452 262.628L39.1501 268.709C37.358 269.016 35.6674 267.889 35.3603 266.098C35.2067 265.202 35.438 264.369 35.926 263.68C36.2344 263.244 36.6518 262.899 37.1453 262.658C37.1013 262.973 37.1016 263.261 37.1571 263.585C37.4644 265.376 39.1618 266.544 40.9539 266.237L76.449 260.156C76.7737 260.1 77.0763 259.968 77.3586 259.821Z" fill="url(#paint30_linear_62_777)"/>
<path opacity="0.75" d="M325.447 149.859C325.447 91.9946 276.15 45.0862 215.339 45.0862C154.528 45.0862 105.231 91.9946 105.231 149.859C105.231 184.975 123.389 216.056 151.256 235.066C163.079 243.13 170.249 256.423 170.249 270.728V278.746C170.249 296.167 184.381 310.289 201.813 310.289H228.865C246.297 310.289 260.429 296.167 260.429 278.746V270.728C260.429 256.423 267.599 243.13 279.422 235.066C307.29 216.056 325.447 184.975 325.447 149.859Z" fill="#F4F7FA"/>
<path d="M239.765 357.003C239.765 364.14 228.83 369.926 215.34 369.926C201.85 369.926 190.915 364.14 190.915 357.003C190.915 349.867 201.85 344.081 215.34 344.081C228.83 344.081 239.765 349.867 239.765 357.003Z" fill="url(#paint31_linear_62_777)"/>
<path d="M182.888 333.919V347.115C182.888 351.58 185.431 355.671 189.463 357.593C195.062 360.261 204.37 363.189 217.897 362.843C228.872 362.562 236.029 360.771 240.579 358.889C244.974 357.072 247.792 352.728 247.792 347.974V340.672L182.888 333.919Z" fill="url(#paint32_linear_62_777)"/>
<path opacity="0.3" d="M182.888 345.478C183.877 346.439 185.023 347.254 186.309 347.867C192.59 350.86 233.731 357.549 243.655 353.822C244.944 353.339 246.103 352.691 247.118 351.91C247.552 350.664 247.792 349.338 247.792 347.974V340.672L182.888 333.919V345.478H182.888Z" fill="url(#paint33_linear_62_777)"/>
<path d="M185.769 324.94C182.114 324.559 178.933 327.425 178.933 331.097V331.471C178.933 336.48 181.785 341.07 186.31 343.226C192.59 346.219 233.731 352.907 243.655 349.181C248.651 347.305 251.747 343.019 251.747 337.686V337.385C251.747 334.214 249.349 331.556 246.194 331.227L185.769 324.94Z" fill="url(#paint34_linear_62_777)"/>
<path opacity="0.3" d="M246.194 331.227L185.77 324.94C183.385 324.692 181.21 325.829 179.98 327.665C181.194 330.523 183.404 332.914 186.309 334.299C192.59 337.292 235.484 344.852 243.655 341.004C246.836 339.506 249.331 336.978 250.667 333.904C249.672 332.444 248.069 331.423 246.194 331.227Z" fill="url(#paint35_linear_62_777)"/>
<path d="M183.405 303.559C180.935 303.559 178.933 305.56 178.933 308.028V318.364C178.933 323.373 181.785 327.963 186.31 330.119C192.59 333.112 235.484 340.672 243.655 336.824C248.483 334.551 251.747 329.912 251.747 324.579V308.029C251.747 305.56 249.744 303.559 247.274 303.559L183.405 303.559Z" fill="url(#paint36_linear_62_777)"/>
<path d="M250.846 306.777C250.846 311.41 234.95 315.165 215.34 315.165C195.73 315.165 179.833 311.41 179.833 306.777C179.833 302.143 195.73 298.387 215.34 298.387C234.949 298.387 250.846 302.143 250.846 306.777Z" fill="url(#paint37_linear_62_777)"/>
<path d="M325.447 149.859C325.447 91.9946 276.15 45.0862 215.339 45.0862C154.528 45.0862 105.231 91.9946 105.231 149.859C105.231 184.975 123.389 216.056 151.256 235.066C163.079 243.13 170.249 256.423 170.249 270.728V278.746C170.249 296.167 184.381 310.289 201.813 310.289H228.865C246.297 310.289 260.429 296.167 260.429 278.746V270.728C260.429 256.423 267.599 243.13 279.422 235.066C307.29 216.056 325.447 184.975 325.447 149.859Z" fill="#FCB148"/>
<path opacity="0.5" d="M215.339 306.3C229.688 306.3 241.32 303.552 241.32 300.162C241.32 296.771 229.688 294.023 215.339 294.023C200.99 294.023 189.358 296.771 189.358 300.162C189.358 303.552 200.99 306.3 215.339 306.3Z" fill="#F4F7FA"/>
<path opacity="0.3" d="M217.338 232.5C219.696 192.118 287.82 182.667 287.528 146.602C287.349 124.391 260.278 107.895 254.498 104.591C211.903 80.246 159.476 108.36 148.648 88.4622C145.952 83.5081 147.216 78.1155 147.936 75.0442C149.025 70.4026 151.488 66.0795 155.142 62.1252C125.09 80.8332 105.231 113.137 105.231 149.859C105.231 184.975 123.389 216.056 151.256 235.066C163.079 243.13 170.249 256.423 170.249 270.728V278.746C170.249 296.167 184.381 310.289 201.813 310.289H228.865C246.298 310.289 260.429 296.167 260.429 278.746V272.336C256.706 275.187 252.43 277.176 247.741 277.138C231.471 277.003 216.164 252.596 217.338 232.5Z" fill="#FCB148"/>
<path opacity="0.44" d="M217.101 245.259C269.43 245.259 311.851 204.376 311.851 153.944C311.851 103.512 269.43 62.6289 217.101 62.6289C164.772 62.6289 122.351 103.512 122.351 153.944C122.351 204.376 164.772 245.259 217.101 245.259Z" fill="#F4F7FA"/>
<path d="M251.229 83.1298L177.484 164.264L207.796 164.076L183.222 225.108L256.826 143.538L229.469 143.614L251.229 83.1298Z" fill="white"/>
<path d="M110.337 131.019L90.9411 164.605L57.8369 146.998L63.6534 168.719L96.7535 186.31L116.154 152.74L110.337 131.019Z" fill="url(#paint38_linear_62_777)"/>
<path d="M332.404 79.2459L306.923 68.9953C299.625 59.4715 290.63 51.0922 280.122 44.2669C228.024 10.4409 155.745 26.1467 118.995 79.2709C103.73 101.326 96.4905 126.815 98.0122 152.353C98.2963 157.324 98.9233 162.303 99.8847 167.257C100.713 171.501 97.8617 175.762 93.5149 176.781C89.1758 177.8 84.9878 175.185 84.1599 170.941C83.4659 167.341 82.9226 163.74 82.5299 160.131C79.186 129.012 87.3201 97.6585 105.921 70.7749C147.753 10.2989 230.038 -7.57901 289.343 30.9254C296.699 35.7039 303.395 41.1508 309.406 47.1576C318.861 56.6145 326.585 67.4581 332.404 79.2459Z" fill="url(#paint39_linear_62_777)"/>
<path d="M320.406 162.567L339.802 128.982L372.906 146.588L367.09 124.867L333.99 107.276L314.589 140.846L320.406 162.567Z" fill="url(#paint40_linear_62_777)"/>
<path d="M324.83 222.813C282.989 283.289 200.704 301.158 141.4 262.654C134.043 257.883 127.347 252.437 121.336 246.43C112.115 237.198 104.533 226.647 98.7646 215.185L125.734 227.006C132.672 235.536 141.015 243.08 150.629 249.32C202.719 283.146 274.997 267.441 311.747 214.316C327.012 192.261 334.251 166.773 332.73 141.226C332.446 136.255 331.819 131.284 330.857 126.33C330.03 122.086 332.88 117.826 337.228 116.806C341.566 115.787 345.755 118.402 346.582 122.646C347.276 126.246 347.82 129.847 348.212 133.456C351.556 164.576 343.422 195.929 324.83 222.813Z" fill="url(#paint41_linear_62_777)"/>
<defs>
<linearGradient id="paint0_linear_62_777" x1="306.918" y1="137.965" x2="305.534" y2="348.527" gradientUnits="userSpaceOnUse">
<stop offset="0.0036" stop-color="#267DD0"/>
<stop offset="1" stop-color="#47A5FF"/>
</linearGradient>
<linearGradient id="paint1_linear_62_777" x1="326.018" y1="415.773" x2="330.292" y2="391.792" gradientUnits="userSpaceOnUse">
<stop stop-color="#2C7CC8"/>
<stop offset="0.9964" stop-color="#0055A5"/>
</linearGradient>
<linearGradient id="paint2_linear_62_777" x1="315.416" y1="413.884" x2="319.69" y2="389.903" gradientUnits="userSpaceOnUse">
<stop stop-color="#2C7CC8"/>
<stop offset="0.9964" stop-color="#0055A5"/>
</linearGradient>
<linearGradient id="paint3_linear_62_777" x1="371.903" y1="371.92" x2="479.278" y2="535.338" gradientUnits="userSpaceOnUse">
<stop offset="0.0036" stop-color="#47A5FF"/>
<stop offset="1" stop-color="#267DD0"/>
</linearGradient>
<linearGradient id="paint4_linear_62_777" x1="378.146" y1="321.884" x2="301.462" y2="321.884" gradientUnits="userSpaceOnUse">
<stop offset="0.0036" stop-color="#47A5FF"/>
<stop offset="1" stop-color="#267DD0"/>
</linearGradient>
<linearGradient id="paint5_linear_62_777" x1="280.67" y1="280.524" x2="299.906" y2="304.738" gradientUnits="userSpaceOnUse">
<stop stop-color="#2C7CC8"/>
<stop offset="0.9964" stop-color="#0055A5"/>
</linearGradient>
<linearGradient id="paint6_linear_62_777" x1="282.121" y1="278.653" x2="277.336" y2="271.137" gradientUnits="userSpaceOnUse">
<stop stop-color="#96CAFF"/>
<stop offset="0.9964" stop-color="#6CB5FF"/>
</linearGradient>
<linearGradient id="paint7_linear_62_777" x1="354.735" y1="383.201" x2="462.11" y2="546.619" gradientUnits="userSpaceOnUse">
<stop stop-color="#47A5FF"/>
<stop offset="1" stop-color="#267DD0"/>
</linearGradient>
<linearGradient id="paint8_linear_62_777" x1="350.285" y1="315.752" x2="339.367" y2="269.835" gradientUnits="userSpaceOnUse">
<stop stop-color="#001426"/>
<stop offset="0.9964" stop-color="#003260"/>
</linearGradient>
<linearGradient id="paint9_linear_62_777" x1="53.3462" y1="334.148" x2="224.076" y2="334.148" gradientUnits="userSpaceOnUse">
<stop offset="0.0036" stop-color="#2C7CC8"/>
<stop offset="1" stop-color="#0055A5"/>
</linearGradient>
<linearGradient id="paint10_linear_62_777" x1="39.1805" y1="251.483" x2="139.443" y2="135.424" gradientUnits="userSpaceOnUse">
<stop offset="0.0036" stop-color="#6CB5FF"/>
<stop offset="1" stop-color="#9CCDFF"/>
</linearGradient>
<linearGradient id="paint11_linear_62_777" x1="39.1805" y1="251.483" x2="139.443" y2="135.424" gradientUnits="userSpaceOnUse">
<stop offset="0.0036" stop-color="#6CB5FF"/>
<stop offset="1" stop-color="#9CCDFF"/>
</linearGradient>
<linearGradient id="paint12_linear_62_777" x1="37.7021" y1="163.13" x2="9.78962" y2="235.718" gradientUnits="userSpaceOnUse">
<stop stop-color="#EBEFF2"/>
<stop offset="0.4737" stop-color="#D2D9E1"/>
<stop offset="0.9946" stop-color="#B7C0CE"/>
</linearGradient>
<linearGradient id="paint13_linear_62_777" x1="82.7069" y1="155.345" x2="54.7574" y2="228.029" gradientUnits="userSpaceOnUse">
<stop stop-color="#EBEFF2"/>
<stop offset="0.4737" stop-color="#D2D9E1"/>
<stop offset="0.9946" stop-color="#B7C0CE"/>
</linearGradient>
<linearGradient id="paint14_linear_62_777" x1="44.1619" y1="225.348" x2="45.3923" y2="234.693" gradientUnits="userSpaceOnUse">
<stop stop-color="#2C7CC8"/>
<stop offset="0.9964" stop-color="#0055A5"/>
</linearGradient>
<linearGradient id="paint15_linear_62_777" x1="46.6855" y1="240.061" x2="47.916" y2="249.406" gradientUnits="userSpaceOnUse">
<stop stop-color="#2C7CC8"/>
<stop offset="0.9964" stop-color="#0055A5"/>
</linearGradient>
<linearGradient id="paint16_linear_62_777" x1="49.2097" y1="254.774" x2="50.4401" y2="264.119" gradientUnits="userSpaceOnUse">
<stop stop-color="#2C7CC8"/>
<stop offset="0.0001" stop-color="#2C7CC8"/>
<stop offset="0.9964" stop-color="#0055A5"/>
</linearGradient>
<linearGradient id="paint17_linear_62_777" x1="44.0899" y1="209.733" x2="46.9932" y2="231.783" gradientUnits="userSpaceOnUse">
<stop offset="0.0036" stop-color="#6CB5FF"/>
<stop offset="1" stop-color="#96CAFF"/>
</linearGradient>
<linearGradient id="paint18_linear_62_777" x1="29.0574" y1="171.113" x2="12.2102" y2="214.925" gradientUnits="userSpaceOnUse">
<stop stop-color="#EBEFF2"/>
<stop offset="0.4737" stop-color="#D2D9E1"/>
<stop offset="0.9946" stop-color="#B7C0CE"/>
</linearGradient>
<linearGradient id="paint19_linear_62_777" x1="74.0755" y1="163.401" x2="57.2283" y2="207.213" gradientUnits="userSpaceOnUse">
<stop stop-color="#EBEFF2"/>
<stop offset="0.4737" stop-color="#D2D9E1"/>
<stop offset="0.9946" stop-color="#B7C0CE"/>
</linearGradient>
<linearGradient id="paint20_linear_62_777" x1="22.3518" y1="194.781" x2="31.5091" y2="264.33" gradientUnits="userSpaceOnUse">
<stop stop-color="#EBEFF2"/>
<stop offset="0.4737" stop-color="#D2D9E1"/>
<stop offset="0.9946" stop-color="#B7C0CE"/>
</linearGradient>
<linearGradient id="paint21_linear_62_777" x1="45.1463" y1="168.79" x2="17.8134" y2="239.871" gradientUnits="userSpaceOnUse">
<stop stop-color="#EBEFF2"/>
<stop offset="0.4737" stop-color="#D2D9E1"/>
<stop offset="0.9946" stop-color="#B7C0CE"/>
</linearGradient>
<linearGradient id="paint22_linear_62_777" x1="65.8773" y1="187.324" x2="80.3978" y2="255.955" gradientUnits="userSpaceOnUse">
<stop stop-color="#EBEFF2"/>
<stop offset="0.4737" stop-color="#D2D9E1"/>
<stop offset="0.9946" stop-color="#B7C0CE"/>
</linearGradient>
<linearGradient id="paint23_linear_62_777" x1="50.8455" y1="225.399" x2="63.1297" y2="318.696" gradientUnits="userSpaceOnUse">
<stop offset="0.0036" stop-color="#6CB5FF"/>
<stop offset="1" stop-color="#96CAFF"/>
</linearGradient>
<linearGradient id="paint24_linear_62_777" x1="48.4709" y1="251.701" x2="49.3986" y2="210.218" gradientUnits="userSpaceOnUse">
<stop offset="0.0036" stop-color="#6CB5FF"/>
<stop offset="1" stop-color="#96CAFF"/>
</linearGradient>
<linearGradient id="paint25_linear_62_777" x1="50.9377" y1="230.137" x2="52.1681" y2="239.483" gradientUnits="userSpaceOnUse">
<stop stop-color="#2C7CC8"/>
<stop offset="0.9964" stop-color="#0055A5"/>
</linearGradient>
<linearGradient id="paint26_linear_62_777" x1="53.4615" y1="244.851" x2="54.6919" y2="254.196" gradientUnits="userSpaceOnUse">
<stop stop-color="#2C7CC8"/>
<stop offset="0.9964" stop-color="#0055A5"/>
</linearGradient>
<linearGradient id="paint27_linear_62_777" x1="55.9853" y1="259.564" x2="57.2158" y2="268.909" gradientUnits="userSpaceOnUse">
<stop stop-color="#2C7CC8"/>
<stop offset="0.9964" stop-color="#0055A5"/>
</linearGradient>
<linearGradient id="paint28_linear_62_777" x1="51.0418" y1="231.497" x2="52.0279" y2="238.986" gradientUnits="userSpaceOnUse">
<stop stop-color="#2C7CC8"/>
<stop offset="0.9964" stop-color="#0055A5"/>
</linearGradient>
<linearGradient id="paint29_linear_62_777" x1="53.565" y1="246.206" x2="54.5519" y2="253.701" gradientUnits="userSpaceOnUse">
<stop stop-color="#2C7CC8"/>
<stop offset="0.9964" stop-color="#0055A5"/>
</linearGradient>
<linearGradient id="paint30_linear_62_777" x1="56.0885" y1="260.914" x2="57.0761" y2="268.415" gradientUnits="userSpaceOnUse">
<stop stop-color="#2C7CC8"/>
<stop offset="0.9964" stop-color="#0055A5"/>
</linearGradient>
<linearGradient id="paint31_linear_62_777" x1="213.046" y1="375.339" x2="214.999" y2="359.705" gradientUnits="userSpaceOnUse">
<stop offset="0.0036" stop-color="#2C7CC8"/>
<stop offset="1" stop-color="#0055A5"/>
</linearGradient>
<linearGradient id="paint32_linear_62_777" x1="205.003" y1="361.091" x2="224.539" y2="325.903" gradientUnits="userSpaceOnUse">
<stop offset="0.0036" stop-color="#2C7CC8"/>
<stop offset="1" stop-color="#0055A5"/>
</linearGradient>
<linearGradient id="paint33_linear_62_777" x1="182.888" y1="344.421" x2="247.792" y2="344.421" gradientUnits="userSpaceOnUse">
<stop offset="0.0036" stop-color="#2C7CC8"/>
<stop offset="1" stop-color="#0055A5"/>
</linearGradient>
<linearGradient id="paint34_linear_62_777" x1="206.865" y1="351.478" x2="226.156" y2="314.337" gradientUnits="userSpaceOnUse">
<stop offset="0.0036" stop-color="#2C7CC8"/>
<stop offset="1" stop-color="#0055A5"/>
</linearGradient>
<linearGradient id="paint35_linear_62_777" x1="179.98" y1="333.489" x2="250.668" y2="333.489" gradientUnits="userSpaceOnUse">
<stop offset="0.0036" stop-color="#2C7CC8"/>
<stop offset="1" stop-color="#0055A5"/>
</linearGradient>
<linearGradient id="paint36_linear_62_777" x1="178.933" y1="320.726" x2="251.747" y2="320.726" gradientUnits="userSpaceOnUse">
<stop offset="0.0036" stop-color="#2C7CC8"/>
<stop offset="1" stop-color="#0055A5"/>
</linearGradient>
<linearGradient id="paint37_linear_62_777" x1="213.531" y1="315.237" x2="220.693" y2="281.688" gradientUnits="userSpaceOnUse">
<stop offset="0.0036" stop-color="#2C7CC8"/>
<stop offset="1" stop-color="#0055A5"/>
</linearGradient>
<linearGradient id="paint38_linear_62_777" x1="2632.62" y1="-1753.79" x2="2825.01" y2="-1898.57" gradientUnits="userSpaceOnUse">
<stop offset="0.0036" stop-color="#6CB5FF"/>
<stop offset="1" stop-color="#96CAFF"/>
</linearGradient>
<linearGradient id="paint39_linear_62_777" x1="163.291" y1="218.847" x2="79.3777" y2="444.436" gradientUnits="userSpaceOnUse">
<stop offset="0.0036" stop-color="#6CB5FF"/>
<stop offset="1" stop-color="#96CAFF"/>
</linearGradient>
<linearGradient id="paint40_linear_62_777" x1="347.003" y1="154.68" x2="333.03" y2="107.561" gradientUnits="userSpaceOnUse">
<stop offset="0.0036" stop-color="#6CB5FF"/>
<stop offset="1" stop-color="#96CAFF"/>
</linearGradient>
<linearGradient id="paint41_linear_62_777" x1="98.7647" y1="199.775" x2="348.946" y2="199.775" gradientUnits="userSpaceOnUse">
<stop offset="0.0036" stop-color="#6CB5FF"/>
<stop offset="1" stop-color="#96CAFF"/>
</linearGradient>
</defs>
</svg>
