<svg width="190" height="38" viewBox="0 0 190 38" fill="none" xmlns="http://www.w3.org/2000/svg">
<path d="M33.8336 0L43.0187 27.7757H43.3654L52.6783 0H60.3875L48.2932 36.3353H38.1092L26.5539 0H33.8336Z" fill="#0055A5"/>
<path d="M63.8149 36.2582V9.53559H82.7046V14.1938H69.7419V20.5613H81.7327V25.2195H69.7419V31.6H82.7594V36.2582H63.8149Z" fill="#0055A5"/>
<path d="M88.1877 36.2582V9.53559H100.717C102.844 9.53559 104.655 9.92269 106.152 10.6969C107.648 11.4624 108.789 12.528 109.574 13.8937C110.368 15.2507 110.765 16.8165 110.765 18.591C110.765 20.3656 110.363 21.9313 109.56 23.2883C108.757 24.6454 107.593 25.7023 106.069 26.4591C104.555 27.2158 102.72 27.5942 100.567 27.5942H92.0478V23.0665H98.139C99.2797 23.0665 101.689 22.8795 102.428 22.5055C103.177 22.1227 103.733 21.5964 104.098 20.9266C104.472 20.2481 104.66 19.4696 104.66 18.591C104.66 17.7037 104.472 16.9295 104.098 16.2684C103.733 15.5986 103.177 15.0811 102.428 14.7157C101.68 14.3417 99.2614 14.1546 98.1116 14.1546H94.1147V36.2582H88.1877Z" fill="#0055A5"/>
<path d="M113.916 36.2582V9.53559H132.805V14.1938H119.843V20.5613H131.833V25.2195H119.843V31.6H132.86V36.2582H113.916Z" fill="#0055A5"/>
<path d="M163.023 17.8864H157.028C156.918 17.147 156.695 16.4903 156.357 15.9161C156.019 15.3333 155.586 14.8375 155.056 14.4286C154.527 14.0198 153.916 13.7066 153.222 13.4892C152.538 13.2717 151.794 13.163 150.991 13.163C149.54 13.163 148.276 13.5066 147.199 14.1938C146.123 14.8723 145.288 15.8639 144.695 17.1688C144.101 18.4649 143.805 21.0441 143.805 22.8969C143.805 24.8019 144.364 27.7792 144.957 29.0753C145.559 30.3715 146.399 31.3501 147.475 32.0112C148.552 32.6723 149.798 33.0028 151.212 33.0028C152.006 33.0028 152.741 32.9028 153.416 32.7027C154.1 32.5027 154.707 32.2112 155.237 31.8285C155.766 31.4371 156.204 30.963 156.551 30.4062C156.907 29.8495 157.153 29.2145 157.29 28.5012L163.285 28.5273C163.13 29.7538 162.742 30.9369 162.122 32.0764C161.51 33.2073 160.684 34.2207 159.644 35.1166C158.613 36.0039 157.381 36.7085 155.948 37.2304C154.525 37.7437 152.914 38.0003 151.116 38.0003C148.616 38.0003 146.38 37.461 144.409 36.3823C142.447 35.3037 140.286 33.7422 139.145 31.698C138.013 29.6538 137.185 25.8023 137.185 22.8969C137.185 19.9828 137.76 16.499 138.91 14.4547C140.06 12.4105 142.231 10.8534 144.202 9.7835C146.173 8.70485 148.39 8.16553 150.854 8.16553C152.479 8.16553 153.984 8.383 155.371 8.81794C156.768 9.25287 158.004 9.88788 159.081 10.723C160.158 11.5493 161.034 12.5628 161.709 13.7632C162.393 14.9636 162.831 16.338 163.023 17.8864Z" fill="#0055A5"/>
<path d="M166.976 14.1938V9.53559H190V14.1938H181.418V36.2582H175.559V14.1938H166.976Z" fill="#0055A5"/>
<path d="M20.4639 20.7383V25.266H8.37718V20.7383H20.4639ZM0.0273765 27.3146H5.92699C6.02737 28.8456 6.52927 29.9982 7.4327 30.7724C8.33612 31.5465 9.673 31.9336 11.4433 31.9336C12.8852 31.9336 14.0304 31.6118 14.8791 30.9681C15.7277 30.3244 16.3392 29.3979 16.7133 28.1888C17.0874 26.971 17.2745 25.5139 17.2745 23.8177V21.6517C17.2745 19.9032 17.0601 18.4288 16.6312 17.2284C16.2114 16.0192 15.5681 15.1059 14.7011 14.4883C13.8433 13.8706 12.7437 13.5618 11.4023 13.5618C10.0791 13.5618 9.02965 13.7532 8.25399 14.136C7.47832 14.5187 6.91254 15.0667 6.55665 15.78C6.20076 16.4846 5.98175 17.3371 5.89962 18.3375H0C0.182509 16.5803 0.711787 14.9971 1.58783 13.5879C2.473 12.17 3.72775 11.0479 5.35209 10.2215C6.98555 9.39513 9.00228 8.98193 11.4023 8.98193C13.784 8.98193 15.8509 9.49951 17.603 10.5347C19.3551 11.5698 20.7103 13.0356 21.6684 14.9319C22.6266 16.8282 23.1057 19.0725 23.1057 21.6647V23.8307C23.1057 26.423 22.6357 28.6629 21.6958 30.5505C20.765 32.4295 19.4281 33.8822 17.6852 34.9086C15.9422 35.9264 13.8616 36.4353 11.4433 36.4353C9.1346 36.4353 7.15437 36.0525 5.50266 35.287C3.85095 34.5128 2.55969 33.4429 1.6289 32.0772C0.698099 30.7028 0.164259 29.1152 0.0273765 27.3146Z" fill="#0055A5"/>
</svg>
