<svg width="161" height="33" viewBox="0 0 161 33" fill="none" xmlns="http://www.w3.org/2000/svg">
<path d="M28.6659 0L36.4481 23.5177H36.7419L44.6323 0H51.164L40.917 30.7652H32.2884L22.4981 0H28.6659Z" fill="white"/>
<path d="M54.0678 30.6997V8.07361H70.0723V12.0177H59.0895V17.4091H69.2489V21.3532H59.0895V26.7556H70.1187V30.6997H54.0678Z" fill="white"/>
<path d="M74.7179 30.6997V8.07361H85.3338C87.1353 8.07361 88.67 8.40136 89.938 9.05687C91.206 9.70501 92.1725 10.6073 92.8374 11.7636C93.51 12.9126 93.8464 14.2383 93.8464 15.7408C93.8464 17.2434 93.5062 18.5691 92.8258 19.7181C92.1454 20.8671 91.1596 21.7619 89.8684 22.4027C88.585 23.0435 87.0309 23.3639 85.2063 23.3639H77.9884V19.5303H83.1493C84.1157 19.5303 86.1572 19.3719 86.7835 19.0552C87.4175 18.7311 87.8891 18.2855 88.1984 17.7184C88.5154 17.1439 88.6739 16.4847 88.6739 15.7408C88.6739 14.9896 88.5154 14.3341 88.1984 13.7743C87.8891 13.2072 87.4175 12.769 86.7835 12.4596C86.1495 12.1429 84.1003 11.9846 83.1261 11.9846H79.7396V30.6997H74.7179Z" fill="white"/>
<path d="M96.5162 30.6997V8.07361H112.521V12.0177H101.538V17.4091H111.697V21.3532H101.538V26.7556H112.567V30.6997H96.5162Z" fill="white"/>
<path d="M138.123 15.1442H133.043C132.95 14.5182 132.761 13.9621 132.475 13.476C132.189 12.9825 131.822 12.5627 131.373 12.2166C130.925 11.8704 130.407 11.6052 129.819 11.4211C129.239 11.237 128.609 11.1449 127.929 11.1449C126.699 11.1449 125.629 11.4358 124.716 12.0177C123.804 12.5922 123.096 13.4318 122.594 14.5366C122.091 15.634 121.84 17.8178 121.84 19.3866C121.84 20.9996 122.314 23.5205 122.816 24.6179C123.326 25.7154 124.038 26.5439 124.95 27.1037C125.862 27.6635 126.918 27.9433 128.116 27.9433C128.789 27.9433 129.411 27.8586 129.983 27.6892C130.563 27.5198 131.077 27.2731 131.526 26.949C131.974 26.6176 132.345 26.2162 132.639 25.7448C132.941 25.2734 133.149 24.7358 133.265 24.1318L138.345 24.1539C138.214 25.1924 137.885 26.1941 137.359 27.1589C136.841 28.1164 136.142 28.9745 135.26 29.7331C134.387 30.4844 133.343 31.0809 132.129 31.5229C130.923 31.9574 129.558 32.1747 128.035 32.1747C125.916 32.1747 124.022 31.718 122.352 30.8047C120.69 29.8915 118.859 28.5694 117.892 26.8386C116.933 25.1077 116.232 21.8466 116.232 19.3866C116.232 16.9193 116.719 13.9695 117.693 12.2387C118.667 10.5078 120.506 9.18944 122.176 8.28351C123.846 7.37022 125.725 6.91357 127.813 6.91357C129.189 6.91357 130.465 7.09771 131.64 7.46597C132.823 7.83423 133.871 8.37189 134.783 9.07896C135.695 9.77866 136.437 10.6367 137.01 11.6531C137.589 12.6695 137.961 13.8332 138.123 15.1442Z" fill="white"/>
<path d="M141.473 12.0177V8.07361H160.979V12.0177H153.708V30.6997H148.744V12.0177H141.473Z" fill="white"/>
<path d="M17.3382 17.5589V21.3925H7.09766V17.5589H17.3382ZM0.0231951 23.127H5.02171C5.10676 24.4233 5.532 25.3992 6.29743 26.0547C7.06286 26.7102 8.19555 27.038 9.69549 27.038C10.9171 27.038 11.8874 26.7654 12.6065 26.2204C13.3255 25.6754 13.8435 24.891 14.1605 23.8672C14.4775 22.8361 14.636 21.6024 14.636 20.1662V18.3322C14.636 16.8518 14.4543 15.6034 14.0909 14.587C13.7353 13.5632 13.1902 12.7899 12.4557 12.2669C11.7289 11.744 10.7972 11.4825 9.6607 11.4825C8.53961 11.4825 7.65047 11.6446 6.99328 11.9686C6.33609 12.2927 5.85673 12.7567 5.55519 13.3607C5.25366 13.9573 5.0681 14.6791 4.99851 15.5261H0C0.154633 14.0383 0.603069 12.6978 1.34531 11.5046C2.09528 10.3041 3.15838 9.35399 4.53461 8.65429C5.91858 7.95459 7.62727 7.60474 9.6607 7.60474C11.6787 7.60474 13.4299 8.04297 14.9144 8.91943C16.3988 9.7959 17.547 11.0369 18.3588 12.6426C19.1706 14.2482 19.5765 16.1484 19.5765 18.3433V20.1772C19.5765 22.3721 19.1784 24.2686 18.382 25.8669C17.5934 27.4578 16.4607 28.6878 14.9839 29.5569C13.5072 30.4186 11.7444 30.8495 9.69549 30.8495C7.73938 30.8495 6.06161 30.5254 4.66219 29.8773C3.26276 29.2218 2.16873 28.3158 1.3801 27.1595C0.591471 25.9958 0.13917 24.6516 0.0231951 23.127Z" fill="white"/>
</svg>
